<?xml version="1.0" encoding="UTF-8"?>
<svg width="212.03mm" height="104.1mm" version="1.1" viewBox="0 0 751.2888 368.8525" xmlns="http://www.w3.org/2000/svg">
 <g transform="translate(13.584 -13.724)">
  <rect x="-13.584" y="13.724" width="751.29" height="368.85" ry="2.2618" fill="#fff"/>
  <g transform="translate(.63205 -6.3553)">
   <path d="m174.29 118.08a72.857 72.857 0 0 1 -72.857 72.857 72.857 72.857 0 0 1 -72.857 -72.857 72.857 72.857 0 0 1 72.857 -72.857 72.857 72.857 0 0 1 72.857 72.857z" fill="#8bc34a"/>
   <path d="m347.62 118.08a72.857 72.857 0 0 1 -72.857 72.857 72.857 72.857 0 0 1 -72.857 -72.857 72.857 72.857 0 0 1 72.857 -72.857 72.857 72.857 0 0 1 72.857 72.857z" fill="#26c6da"/>
   <path d="m520.95 118.08a72.857 72.857 0 0 1 -72.857 72.857 72.857 72.857 0 0 1 -72.857 -72.857 72.857 72.857 0 0 1 72.857 -72.857 72.857 72.857 0 0 1 72.857 72.857z" fill="#ffca28"/>
   <path d="m694.29 118.08a72.857 72.857 0 0 1 -72.857 72.857 72.857 72.857 0 0 1 -72.857 -72.857 72.857 72.857 0 0 1 72.857 -72.857 72.857 72.857 0 0 1 72.857 72.857z" fill="#ba68c8"/>
   <path d="m174.29 290.93a72.857 72.857 0 0 1 -72.857 72.857 72.857 72.857 0 0 1 -72.857 -72.857 72.857 72.857 0 0 1 72.857 -72.857 72.857 72.857 0 0 1 72.857 72.857z" fill="#d4e157"/>
   <path d="m347.62 290.93a72.857 72.857 0 0 1 -72.857 72.857 72.857 72.857 0 0 1 -72.857 -72.857 72.857 72.857 0 0 1 72.857 -72.857 72.857 72.857 0 0 1 72.857 72.857z" fill="#ec407a"/>
   <path d="m520.95 290.93a72.857 72.857 0 0 1 -72.857 72.857 72.857 72.857 0 0 1 -72.857 -72.857 72.857 72.857 0 0 1 72.857 -72.857 72.857 72.857 0 0 1 72.857 72.857z" fill="#00bfa5"/>
   <path d="m694.29 290.93a72.857 72.857 0 0 1 -72.857 72.857 72.857 72.857 0 0 1 -72.857 -72.857 72.857 72.857 0 0 1 72.857 -72.857 72.857 72.857 0 0 1 72.857 72.857z" fill="#ff5722"/>
   <path d="m98.268 60.869v16.066l3.3301 3.3301-18.105 5.8086s-6.3086 3.34-6.3086 7.4219c0 1.9216-0.3223 3.6562-0.51562 5.1328l-2.5449-1.7012 1.5117 8.3984c0.21272 0.28363-1.2019 3.5669 2.4883 7.2695 5.5499 5.5687 13.508 13.461 20.145 20.027v12.832l2.3633 2.3633-0.0684 2.8242s-10.203-1.5843-16.438-1.9648l-11.434-11.434h-0.94531v11.695l41.057 41.057a72.857 72.857 0 0 0 60.877 -63.047l-45.699-45.701v2.3633l-22.742-22.742h-6.9707z" fill="#33691e"/>
   <path d="m131.11 131.51q0 9.1555-7.1472 15.239-7.1472 6.0249-18.724 7.1472v21.383h-6.97v-21.087q-7.7969-0.0591-14.649-1.4767-6.8519-1.4767-11.873-3.7803v-11.695h0.94508q1.1223 0.82695 4.0166 2.4218 2.8943 1.5358 5.6114 2.5399 3.0715 1.1223 7.1472 2.1264 4.1347 0.94509 8.8011 1.1223v-25.576q-2.3627-0.47254-4.371-0.88602-2.0083-0.47254-3.7213-0.94508-9.628-2.4218-13.822-7.2653-4.1938-4.9026-4.1938-12.05 0-8.742 6.8519-14.767 6.9109-6.0249 19.256-7.0291v-16.066h6.97v15.948q5.9658 0.11814 12.227 1.4176 6.2612 1.2995 10.514 3.0125v11.577h-0.82695q-4.4301-2.7171-9.2736-4.7845-4.7845-2.1264-12.64-2.658v25.458q1.772 0.29534 3.8394 0.82695 2.0674 0.47254 3.6031 0.76788 8.8011 1.8902 13.586 6.4974 4.8436 4.6073 4.8436 12.581zm-32.842-21.678v-24.395q-6.3203 0.47254-10.632 3.485-4.3119 2.9534-4.3119 8.2695 0 5.3752 3.1897 8.0923t11.754 4.5482zm21.678 23.214q0-5.5524-3.485-8.0923-3.4259-2.599-11.223-4.0757v24.454q7.0881-0.70882 10.868-3.6031 3.8394-2.8943 3.8394-8.683z" fill="#fff"/>
   <path d="m74.848 246.96v16.363h-7.5605v7.0879l7.5605 7.5606v0.70898h-7.5605v7.0879l7.5605 7.5606v41.584l28.801 28.801a72.857 72.857 0 0 0 69.818 -62.494l-37.896-37.896h-4.7852l4.7852 4.7852v1.1562l-17.74-7.2539-19.119-15.051h-23.863z" fill="#9e9d24"/>
   <path d="m135.57 285.77h-5.8477q-4.7254 9.9825-15.83 14.058-6.2612 2.3036-15.653 2.3036h-11.695v32.783h-11.695v-49.144h-7.5607v-7.0881h7.5607v-8.2695h-7.5607v-7.0881h7.5607v-16.362h23.863q14.944 0 23.155 5.4933 6.4975 4.312 8.9192 10.868h4.7845v7.0881h-3.3078q0.11814 1.4176 0.11814 3.1306 0 2.7171-0.41348 5.1389h3.6031v7.0881zm-18.547-22.446q-3.3078-4.1347-9.6871-5.5524-3.485-0.76788-9.2146-0.76788h-11.577v6.3202h30.479zm3.1897 10.514q0-1.8902-0.23628-3.4259h-33.432v8.2695h33.137q0.53161-2.3627 0.53161-4.8436zm-4.0757 11.932h-29.593v6.3793h9.8643q14.235 0 19.729-6.3793z" fill="#fff"/>
   <path d="m227.46 252.68 5.9609 22.559h-5.9609v8.2226l11.051 11.051 0.61328 2.3086h-11.664v8.2226l18.846 18.846 1.4004 5.3066 34.178 34.178a72.857 72.857 0 0 0 65.734 -72.436 72.857 72.857 0 0 0 -1.459 -14.16l-24.098-24.098h-9.9688l-5.6016 22.559h-3.8027l-22.559-22.559h-10.328l-5.6016 22.559h-3.75l-22.559-22.559h-10.432z" fill="#c2185b"/>
   <path d="m322.06 252.68-5.858 22.558h5.7552v8.2218h-7.9134l-3.4429 13.36h11.356v8.2218h-13.515l-6.2691 24.151h-11.459l-6.1149-24.151h-19.732l-5.9608 24.151h-11.202l-6.3719-24.151h-13.874v-8.2218h11.665l-3.5456-13.36h-8.119v-8.2218h5.9608l-5.9608-22.558h10.431l5.7038 22.558h20.606l5.6011-22.558h10.329l5.6011 22.558h20.76l5.6011-22.558h9.9689zm-17.625 30.78h-16.649l3.3401 13.36h9.9689l3.3401-13.36zm-27.389-8.2218-2.4151-9.5578-2.3638 9.5578h4.7789zm21.993 29.804h-5.858l2.929 11.87 2.929-11.87zm-16.546-8.2218-3.3401-13.36h-8.9412l-3.2887 13.36h15.57zm-20.349-13.36h-16.495l3.3915 13.36h9.7633l3.3401-13.36zm-5.3955 21.582h-5.6011l2.8262 11.254 2.7748-11.254z" fill="#fff"/>
   <path d="m476.86 249.11v9.0312l-4.0312-3.9785s-11.546-2.362-14.957-2.0996c-3.4111 0.26239-1.8363-0.52357-5.5098 1.0508-3.6735 1.5744-10.233-2.362-11.545 5.5098s0.52425 5.5108-1.3125 8.1348c-1.8367 2.6239 1.3125 8.3965 1.3125 8.3965s-5.5108 0.52493-0.52539 6.0352c3.0302 3.3492 5.8722 6.7867 9.0449 9.6816h-0.71094l-17.779-17.779v9.8633h-9.6289v7.916l8.2695 8.2695h-8.2695v7.9141l11.545 11.545-1.6211 3.9688-0.0742 0.082c-0.11354 8.7e-4 -2.2317 0.035-1.1777 1.3164l-0.93359 1.0449 0.65039 0.6504h2.5098c3.6301 2.3036 9.5575 5.2799 10.275 6.9551 0.0718 0.16753 0.16434 0.45687 0.25781 0.73829l-12.631 2.4062-12.227-12.227v12.227l27.906 27.906a72.857 72.857 0 0 0 2.3965 0.11914 72.857 72.857 0 0 0 72.748 -70.695l-43.982-43.982z" fill="#00796b"/>
   <path d="m478.4 335.77h-60.604v-12.227q6.084-1.5948 8.9783-5.3752 2.8943-3.8394 3.7213-11.105h-9.2736v-7.9151h9.6871v-8.2695h-9.6871v-7.9151h9.628v-9.8643q0-11.814 7.4425-19.374 7.5016-7.6197 19.61-7.6197 6.2021 0 10.691 1.0042 4.4892 1.0042 8.2695 2.0083v12.168h-0.59067q-3.6622-2.4808-8.1514-3.8985-4.4892-1.4176-9.569-1.4176-8.2695 0-12.404 4.9026-4.0757 4.8436-4.0757 13.349v8.742h21.501v7.9151h-21.56v8.2695h21.56v7.9151h-21.796q-0.88602 5.9658-4.1938 10.691-3.3078 4.6664-8.6239 7.2653v0.64974h49.44v10.101z" fill="#fff"/>
   <path d="m578.12 250.15v65.26l48.205 48.205a72.857 72.857 0 0 0 66.703 -59.469l-34.637-34.637c-2.2611-2.2611-4.9357-3.3926-8.0254-3.3926-3.2186 0-5.7967 1.1774-7.7422 3.5176l-2.5117-2.5117h-10.564v1.9648l-14.707-14.707c-1.0137-1.0137-2.125-1.8031-3.334-2.3672-2.5701-1.243-5.9894-1.8633-10.256-1.8633h-23.131z" fill="#d84315"/>
   <path d="m578.12 250.15v65.26h12.414v-25.865h8.8281l8.0957 25.865h13.609l-9.7148-28.83c6.0912-3.4105 9.1367-9.0361 9.1367-16.877 0-4.0161-0.84863-7.6643-2.5449-10.947-1.6963-3.283-3.8416-5.531-6.4375-6.7422-2.5701-1.243-5.9894-1.8633-10.256-1.8633h-23.131zm12.414 11.617h7.2852c2.8272 0 4.7551 0.17479 5.7832 0.52539 1.028 0.31874 1.9797 1.1966 2.8535 2.6309 0.87386 1.4343 1.3106 3.0582 1.3106 4.875 0 1.9124-0.43669 3.6191-1.3106 5.1172-0.87385 1.4662-1.877 2.421-3.0078 2.8672-1.1052 0.41435-2.8901 0.62304-5.3574 0.62304h-7.5566v-16.639zm59.832 4.3496c-4.8833 0-8.3006 2.6935-10.254 8.0801v-7.0742h-10.564v64.59h11.143v-21.656c1.8762 4.2392 5.0113 6.3574 9.4062 6.3574 4.3435 0 7.8658-2.1502 10.564-6.4531 2.7244-4.3348 4.0859-10.757 4.0859-19.268 0-8.0002-1.3502-14.088-4.0488-18.264-2.673-4.2073-6.117-6.3125-10.332-6.3125zm-3.584 9.8496c4.0608 0 6.0898 4.7648 6.0898 14.295 0 6.7891-0.61594 11.187-1.8496 13.195-1.2337 1.9762-2.6353 2.9648-4.2031 2.9648-1.2594 0-2.4284-0.50935-3.5078-1.5293-1.0795-1.0518-1.787-2.2322-2.1211-3.5391-0.33412-1.3068-0.5-3.6638-0.5-7.0742v-7.1719c0-4.0479 0.6293-6.9162 1.8887-8.6055s2.661-2.5352 4.2031-2.5352z" fill="#fff"/>
   <path d="m650.2 76.256v8.1309c-1.8192-1.2681-5.0585-3.1058-12.584-3.9238-12.07-1.312-14.693-5.2483-16.529-2.0996s-6.8222 3.4111-7.6094 7.6094c-0.78718 4.1983-2.6236 5.51-3.1484 10.758-0.32263 3.2263-0.63135 6.1261-0.83203 8.8184l-5.3106-5.3106v18.311h-10.396v8.1523l11.844 11.844c-1.0032 1.7089-2.2261 3.5385-3.1777 6.2031-1.312 3.6735-4.9857 5.5109-5.248 7.3476-0.10644 0.7452-2.438 0.67719-3.6719 0.99024l-2.4043-2.4043v12.227l27.906 27.906a72.857 72.857 0 0 0 2.3945 0.11914 72.857 72.857 0 0 0 72.75 -70.695l-43.982-43.982zm-53.047 80.447c2.0093 1.031 4.7874 2.3353 8.7148 4.0508 1.7462 0.7627 3.2861 1.4713 4.7363 2.1543h-7.2461l-6.2051-6.2051z" fill="#7b1fa2"/>
   <path d="m651.73 162.91h-60.604v-12.227q6.97-1.8902 9.9824-7.4425 3.0715-5.6114 3.0715-16.539h-10.396v-8.1514h10.396v-18.311q0-11.814 7.4425-19.374 7.5016-7.6197 19.61-7.6197 6.2021 0 10.691 1.0042t8.2695 2.0083v12.168h-0.59068q-3.6622-2.4808-8.1514-3.8985-4.4892-1.4176-9.569-1.4176-8.2695 0-12.404 4.9026-4.0757 4.8436-4.0757 13.349v17.189h24.513v8.1514h-24.513v3.6031q0 7.4425-3.6622 12.995-3.6622 5.4933-9.4508 8.8602v0.64974h49.44v10.101z" fill="#fff"/>
   <path d="m416.11 74.1 26.641 49.736v2.7754h-21.973v8.1523l8.1504 8.1504h-8.1504v8.1524l38.902 38.904a72.857 72.857 0 0 0 61.273 -71.895 72.857 72.857 0 0 0 -0.11523 -3.2188l-40.758-40.758h-11.99l-13.324 26.133-26.133-26.133h-12.523z" fill="#ff6f00"/>
   <path d="m480.08 74.101-26.462 49.735v2.7762h21.973v8.1514h-21.855v8.1514h21.855v8.1514h-21.855v10.987h-11.105v-10.987h-21.855v-8.1514h21.855v-8.1514h-21.855v-8.1514h21.973v-2.7762l-26.64-49.735h12.522l19.61 38.926 19.847-38.926h11.991z" fill="#fff"/>
   <path d="m297.84 77.586v8.8965l-4.2207-4.1836s-24.404-3.1478-25.453-2.623c-1.0496 0.52478-21.516 9.4457-22.303 13.119s-5.511 11.283-6.5606 17.58c-0.0268 0.16111-0.0633 0.32578-0.0937 0.48828l-5.6934-5.6934h-5.4941l-2.5976 6.9707 11.082 11.082c-0.13588 1.3583-0.17153 2.7705-0.0703 4.2402l-3.9824-3.9824h-4.4316l-2.5976 6.9707 59.672 59.672a72.857 72.857 0 0 0 61.945 -63.336l-49.201-49.201z" fill="#00838f"/>
   <path d="m297.84 158.39q-6.3793 3.0125-11.873 4.1348-5.4342 1.1223-12.877 1.1223-14.353 0-25.635-8.9192-11.223-8.9192-14.117-24.277h-7.9151l2.599-6.97h4.4301q-0.11814-1.2404-0.17721-2.599-0.0591-1.4176-0.0591-2.7171 0-1.5358 0.0591-3.0715t0.17721-2.9534h-7.0291l2.599-6.97h5.4933q3.4259-15.18 14.413-23.922 10.987-8.742 25.34-8.742 8.3286 0 13.94 1.2404 5.6705 1.1814 10.632 3.8394v12.345h-0.94508q-4.7254-3.8394-10.573-5.6114-5.8477-1.8311-13.172-1.8311-9.2736 0-16.834 6.143-7.5607 6.084-10.396 16.539h28.057l-2.599 6.97h-26.699q-0.11813 1.4176-0.23627 2.9534-0.0591 1.5358-0.0591 3.0715 0 1.3586 0.0591 2.7171t0.17721 2.599h22.446l-2.599 6.97h-18.665q2.8943 10.75 10.691 16.952 7.7969 6.143 16.657 6.143 9.2736 0 14.531-1.8311 5.257-1.8902 9.2736-5.4933h0.88601v12.168z" fill="#fff"/>
  </g>
 </g>
</svg>
