<svg id="Layer_3" enable-background="new 0 0 64 64" height="512" viewBox="0 0 64 64" width="512" xmlns="http://www.w3.org/2000/svg"><path d="m52 62h-40c-2.209 0-4-1.791-4-4v-52c0-2.209 1.791-4 4-4h40c2.209 0 4 1.791 4 4v52c0 2.209-1.791 4-4 4z" fill="#8892a0"/><path d="m12 6h40v48h-40z" fill="#c7e2fc"/><path d="m12 42.921c2.372.7 4.89 1.079 7.5 1.079 14.083 0 25.5-10.969 25.5-24.5 0-4.99-1.556-9.629-4.223-13.5h-28.777z" fill="#ebf7fe"/><path d="m26 18h4v12h-4z" fill="#e47c6e"/><path d="m42 22h4v12h-4z" fill="#e47c6e"/><path d="m18 30h4v12h-4z" fill="#78b75b"/><path d="m34 28h4v12h-4z" fill="#78b75b"/><path d="m52 63h-40c-2.757 0-5-2.243-5-5v-52c0-2.757 2.243-5 5-5h40c2.757 0 5 2.243 5 5v52c0 2.757-2.243 5-5 5zm-40-60c-1.654 0-3 1.346-3 3v52c0 1.654 1.346 3 3 3h40c1.654 0 3-1.346 3-3v-52c0-1.654-1.346-3-3-3z"/><path d="m52 55h-40c-.552 0-1-.448-1-1v-48c0-.552.448-1 1-1h40c.552 0 1 .448 1 1v48c0 .552-.448 1-1 1zm-39-2h38v-46h-38z"/><path d="m27 57h10v2h-10z"/><path d="m15 9h34v2h-34z"/><path d="m17 10h2v3h-2z"/><path d="m21 10h2v3h-2z"/><path d="m25 10h2v3h-2z"/><path d="m29 10h2v3h-2z"/><path d="m33 10h2v3h-2z"/><path d="m37 10h2v3h-2z"/><path d="m41 10h2v3h-2z"/><path d="m45 10h2v3h-2z"/><path d="m15 49h34v2h-34z"/><path d="m17 47h2v3h-2z"/><path d="m21 47h2v3h-2z"/><path d="m25 47h2v3h-2z"/><path d="m29 47h2v3h-2z"/><path d="m33 47h2v3h-2z"/><path d="m37 47h2v3h-2z"/><path d="m41 47h2v3h-2z"/><path d="m45 47h2v3h-2z"/><path d="m22 43h-4c-.552 0-1-.448-1-1v-12c0-.552.448-1 1-1h4c.552 0 1 .448 1 1v12c0 .552-.448 1-1 1zm-3-2h2v-10h-2z"/><path d="m19 27h2v3h-2z"/><path d="m19 42h2v3h-2z"/><path d="m30 31h-4c-.552 0-1-.448-1-1v-12c0-.552.448-1 1-1h4c.552 0 1 .448 1 1v12c0 .552-.448 1-1 1zm-3-2h2v-10h-2z"/><path d="m27 15h2v3h-2z"/><path d="m27 30h2v3h-2z"/><path d="m38 41h-4c-.552 0-1-.448-1-1v-12c0-.552.448-1 1-1h4c.552 0 1 .448 1 1v12c0 .552-.448 1-1 1zm-3-2h2v-10h-2z"/><path d="m35 25h2v3h-2z"/><path d="m35 40h2v3h-2z"/><path d="m46 35h-4c-.552 0-1-.448-1-1v-12c0-.552.448-1 1-1h4c.552 0 1 .448 1 1v12c0 .552-.448 1-1 1zm-3-2h2v-10h-2z"/><path d="m43 19h2v3h-2z"/><path d="m43 34h2v3h-2z"/></svg>