<svg id="Layer_3" enable-background="new 0 0 64 64" height="512" viewBox="0 0 64 64" width="512" xmlns="http://www.w3.org/2000/svg"><path d="m34 62h-4c-1.105 0-2-.895-2-2v-24h8v24c0 1.105-.895 2-2 2z" fill="#976947"/><path d="m30 30h4v7h-4z" fill="#4d5d7a"/><path d="m28 36h8v4h-8z" fill="#c18e59"/><circle cx="32" cy="17" fill="#a1cdfb" r="15"/><path d="m17 17c0 2.86.815 5.523 2.203 7.797 2.274 1.388 4.937 2.203 7.797 2.203 8.284 0 15-6.716 15-15 0-2.86-.815-5.523-2.203-7.797-2.274-1.388-4.937-2.203-7.797-2.203-8.284 0-15 6.716-15 15z" fill="#c7e2fc"/><path d="m57 25-5-8h10z" fill="#e47c6e"/><path d="m7 17-5 8h10z" fill="#78b75b"/><path d="m31 9h4v6h-4z" fill="#78b75b"/><path d="m23 17h4v6h-4z" fill="#e47c6e"/><path d="m39 13h4v6h-4z" fill="#e47c6e"/><path d="m29 32h2v4h-2z"/><path d="m33 32h2v4h-2z"/><path d="m34 63h-4c-1.654 0-3-1.346-3-3v-24c0-.552.447-1 1-1h8c.553 0 1 .448 1 1v24c0 1.654-1.346 3-3 3zm-5-26v23c0 .551.448 1 1 1h4c.552 0 1-.449 1-1v-23z"/><path d="m28 39h8v2h-8z"/><path d="m57 26c-.345 0-.665-.178-.848-.47l-5-8c-.193-.308-.203-.697-.027-1.015.177-.318.512-.515.875-.515h10c.363 0 .698.197.875.515.176.318.166.707-.027 1.015l-5 8c-.183.292-.503.47-.848.47zm-3.195-8 3.195 5.113 3.195-5.113z"/><path d="m12 26h-10c-.363 0-.698-.197-.875-.515-.176-.318-.166-.707.027-1.015l5-8c.365-.585 1.33-.585 1.695 0l5 8c.193.308.203.697.027 1.015s-.511.515-.874.515zm-8.195-2h6.391l-3.196-5.113z"/><path d="m3 28h2v2h-2z"/><path d="m3 32h2v2h-2z"/><path d="m9 28h2v2h-2z"/><path d="m9 32h2v2h-2z"/><path d="m53 8h2v2h-2z"/><path d="m53 12h2v2h-2z"/><path d="m59 8h2v2h-2z"/><path d="m59 12h2v2h-2z"/><path d="m32 33c-8.822 0-16-7.178-16-16s7.178-16 16-16 16 7.178 16 16-7.178 16-16 16zm0-30c-7.72 0-14 6.28-14 14s6.28 14 14 14 14-6.28 14-14-6.28-14-14-14z"/><path d="m27 24h-4c-.553 0-1-.448-1-1v-6c0-.552.447-1 1-1h4c.553 0 1 .448 1 1v6c0 .552-.447 1-1 1zm-3-2h2v-4h-2z"/><path d="m35 16h-4c-.553 0-1-.448-1-1v-6c0-.552.447-1 1-1h4c.553 0 1 .448 1 1v6c0 .552-.447 1-1 1zm-3-2h2v-4h-2z"/><path d="m43 20h-4c-.553 0-1-.448-1-1v-6c0-.552.447-1 1-1h4c.553 0 1 .448 1 1v6c0 .552-.447 1-1 1zm-3-2h2v-4h-2z"/><path d="m32 6h2v3h-2z"/><path d="m32 15h2v3h-2z"/><path d="m24 14h2v3h-2z"/><path d="m24 23h2v3h-2z"/><path d="m40 10h2v3h-2z"/><path d="m40 19h2v3h-2z"/></svg>