<svg id="Layer_3" enable-background="new 0 0 64 64" height="512" viewBox="0 0 64 64" width="512" xmlns="http://www.w3.org/2000/svg"><path d="m58 2h-52c-2.209 0-4 1.791-4 4v52c0 2.209 1.791 4 4 4h52c2.209 0 4-1.791 4-4v-52c0-2.209-1.791-4-4-4z" fill="#a8b0bc"/><path d="m2 6v43.44c5.002 2.895 10.805 4.56 17 4.56 18.778 0 34-15.222 34-34 0-6.612-1.894-12.779-5.159-18h-41.841c-2.209 0-4 1.791-4 4z" fill="#c1c8d1"/><circle cx="18" cy="18" fill="#c7e2fc" r="12"/><path d="m6 18c0 1.531.298 2.99.821 4.337 2.014 2.243 4.927 3.663 8.179 3.663 6.075 0 11-4.925 11-11 0-3.252-1.42-6.165-3.663-8.179-1.347-.523-2.806-.821-4.337-.821-6.627 0-12 5.373-12 12z" fill="#ebf7fe"/><path d="m18 20c-2.761 0-5 2.239-5 5v3.898c1.524.7 3.213 1.102 5 1.102s3.476-.401 5-1.102v-3.898c0-2.761-2.239-5-5-5z" fill="#f5b953"/><path d="m13 27.909c.328.054.661.091 1 .091 3.374 0 6.254-2.745 7.43-6.623-.896-.848-2.099-1.377-3.43-1.377-2.761 0-5 2.239-5 5z" fill="#f9d18b"/><path d="m18 18c-1.657 0-3-1.343-3-3v-2c0-1.657 1.343-3 3-3 1.657 0 3 1.343 3 3v2c0 1.657-1.343 3-3 3z" fill="#efbe9a"/><path d="m38 32h4v12h-4z" fill="#e47c6e"/><path d="m54 36h4v12h-4z" fill="#e47c6e"/><path d="m30 44h4v12h-4z" fill="#78b75b"/><path d="m46 42h4v12h-4z" fill="#78b75b"/><path d="m58 63h-52c-2.757 0-5-2.243-5-5v-52c0-2.757 2.243-5 5-5h52c2.757 0 5 2.243 5 5v52c0 2.757-2.243 5-5 5zm-52-60c-1.654 0-3 1.346-3 3v52c0 1.654 1.346 3 3 3h52c1.654 0 3-1.346 3-3v-52c0-1.654-1.346-3-3-3z"/><path d="m24 29h-2v-4c0-2.206-1.794-4-4-4s-4 1.794-4 4v4h-2v-4c0-3.309 2.691-6 6-6s6 2.691 6 6z"/><path d="m18 31c-7.168 0-13-5.832-13-13s5.832-13 13-13 13 5.832 13 13-5.832 13-13 13zm0-24c-6.065 0-11 4.935-11 11s4.935 11 11 11 11-4.935 11-11-4.935-11-11-11z"/><path d="m18 19c-2.206 0-4-1.794-4-4v-2c0-2.206 1.794-4 4-4s4 1.794 4 4v2c0 2.206-1.794 4-4 4zm0-8c-1.103 0-2 .897-2 2v2c0 1.103.897 2 2 2s2-.897 2-2v-2c0-1.103-.897-2-2-2z"/><path d="m34 57h-4c-.553 0-1-.447-1-1v-12c0-.553.447-1 1-1h4c.553 0 1 .447 1 1v12c0 .553-.447 1-1 1zm-3-2h2v-10h-2z"/><path d="m31 29h2v15h-2z"/><path d="m31 56h2v3h-2z"/><path d="m42 45h-4c-.553 0-1-.447-1-1v-12c0-.553.447-1 1-1h4c.553 0 1 .447 1 1v12c0 .553-.447 1-1 1zm-3-2h2v-10h-2z"/><path d="m39 29h2v3h-2z"/><path d="m39 44h2v15h-2z"/><path d="m50 55h-4c-.553 0-1-.447-1-1v-12c0-.553.447-1 1-1h4c.553 0 1 .447 1 1v12c0 .553-.447 1-1 1zm-3-2h2v-10h-2z"/><path d="m47 29h2v13h-2z"/><path d="m47 54h2v5h-2z"/><path d="m58 49h-4c-.553 0-1-.447-1-1v-12c0-.553.447-1 1-1h4c.553 0 1 .447 1 1v12c0 .553-.447 1-1 1zm-3-2h2v-10h-2z"/><path d="m55 29h2v7h-2z"/><path d="m55 48h2v11h-2z"/><path d="m33 17h26v2h-26z"/><path d="m33 13h26v2h-26z"/><path d="m33 25h26v2h-26z"/><path d="m33 21h26v2h-26z"/><path d="m33 9h26v2h-26z"/><path d="m5 57h22v2h-22z"/><path d="m5 53h22v2h-22z"/><path d="m5 49h22v2h-22z"/><path d="m5 45h22v2h-22z"/><path d="m5 41h22v2h-22z"/><path d="m5 37h22v2h-22z"/><path d="m5 33h22v2h-22z"/></svg>