<svg id="Layer_3" enable-background="new 0 0 64 64" height="512" viewBox="0 0 64 64" width="512" xmlns="http://www.w3.org/2000/svg"><path d="m9 19c-2.209 0-4 1.791-4 4 0 2.209 1.791 4 4 4" fill="#db9b7c"/><path d="m35 19c2.209 0 4 1.791 4 4 0 2.209-1.791 4-4 4" fill="#db9b7c"/><path d="m15 38-8.765 2.697c-2.517.774-4.235 3.1-4.235 5.734v15.569h40v-15.569c0-2.634-1.718-4.96-4.235-5.735l-8.765-2.696" fill="#c1c8d1"/><path d="m16.5 55c11.303 0 20.813-5.469 23.64-12.903-.659-.63-1.462-1.12-2.375-1.4l-8.765-2.697h-14l-8.765 2.697c-2.517.774-4.235 3.1-4.235 5.734v5.173c4.06 2.133 9.073 3.396 14.5 3.396z" fill="#ebf7fe"/><path d="m35 4v23c0 7.18-5.82 13-13 13-7.18 0-13-5.82-13-13v-25h8.929c4.527 0 8.87 1.799 12.071 5z" fill="#efbe9a"/><path d="m30 7c-3.201-3.201-7.544-5-12.071-5h-8.929v21c2.209 0 4-1.791 4-4v-1.93c0-1.696 1.375-3.07 3.07-3.07.606 0 1.199.179 1.703.516l.562.375c1.086.723 2.361 1.109 3.665 1.109s2.579-.386 3.664-1.109l.562-.375c.505-.337 1.097-.516 1.704-.516 1.696 0 3.07 1.375 3.07 3.07v1.93c0 2.209 1.791 4 4 4v-19z" fill="#976947"/><circle cx="28" cy="23" fill="#c7e2fc" r="4"/><circle cx="16" cy="23" fill="#c7e2fc" r="4"/><path d="m21 48-2 10 3 4 3-4-2-10" fill="#8892a0"/><path d="m27 39-3 5 2 2-4 3-4-3 2-2-3-5" fill="#efbe9a"/><path d="m13.856 38.352 2.144 9.648 4-4-3.6-6h-1.4z" fill="#c1c8d1"/><path d="m30.144 38.352-1.144-.352h-1.4l-3.6 6 4 4z" fill="#c1c8d1"/><circle cx="47" cy="47" fill="#c7e2fc" r="15"/><path d="m58 39.5c0-1.021-.106-2.016-.283-2.986-2.723-2.782-6.516-4.514-10.717-4.514-8.284 0-15 6.716-15 15 0 2.56.644 4.968 1.775 7.076 2.305 1.224 4.932 1.924 7.725 1.924 9.113 0 16.5-7.387 16.5-16.5z" fill="#ebf7fe"/><path d="m46 39h4v6h-4z" fill="#e47c6e"/><path d="m38 47h4v6h-4z" fill="#78b75b"/><path d="m54 43h4v6h-4z" fill="#78b75b"/><path d="m30.5 36.153h2v5.231h-2z" transform="matrix(.294 -.956 .956 .294 -14.817 57.478)"/><path d="m42 63h-40c-.552 0-1-.447-1-1v-15.568c0-3.092 1.986-5.781 4.941-6.691l8.765-2.696.588 1.912-8.765 2.696c-2.111.649-3.529 2.57-3.529 4.779v14.568h40v1c0 .553-.448 1-1 1z"/><path d="m16 49c-.093 0-.188-.013-.28-.04-.35-.102-.617-.387-.696-.743l-2-9 1.952-.434 1.605 7.222 2.16-2.16-2.598-4.33 1.715-1.029 3 5c.236.394.174.897-.15 1.222l-4 4c-.191.189-.447.292-.708.292z"/><path d="m28 49c-.261 0-.517-.103-.707-.293l-4-4c-.325-.324-.387-.828-.15-1.222l3-5 1.715 1.029-2.598 4.33 2.16 2.16 1.605-7.222 1.952.434-2 9c-.079.356-.346.642-.696.743-.093.028-.188.041-.281.041z"/><path d="m22 50c-.211 0-.422-.066-.6-.2l-4-3 1.2-1.6 3.4 2.55 3.4-2.55 1.2 1.6-4 3c-.178.134-.389.2-.6.2z"/><path d="m22 63c-.315 0-.611-.148-.8-.4l-3-4c-.171-.228-.237-.517-.181-.796l2-10 1.961.393-1.912 9.562 1.932 2.574 1.932-2.575-1.912-9.562 1.961-.393 2 10c.056.279-.01.568-.181.796l-3 4c-.189.253-.485.401-.8.401z"/><path d="m22 41c-7.72 0-14-6.28-14-14v-25c0-.553.448-1 1-1h8.929c4.564 0 8.87 1.681 12.211 4.75l4.345-2.607c.309-.185.694-.19 1.007-.013.314.178.508.51.508.87v23c0 7.72-6.28 14-14 14zm-12-38v24c0 6.617 5.383 12 12 12s12-5.383 12-12v-21.233l-3.485 2.091c-.394.237-.897.175-1.222-.15-3.036-3.036-7.072-4.708-11.364-4.708z"/><path d="m35 24c-2.757 0-5-2.243-5-5v-1.93c0-1.142-.929-2.07-2.07-2.07-.41 0-.807.12-1.149.348l-.562.375c-2.506 1.672-5.932 1.672-8.438 0l-.562-.375c-.342-.228-.739-.348-1.149-.348-1.141 0-2.07.929-2.07 2.07v1.93c0 2.757-2.243 5-5 5v-2c1.654 0 3-1.346 3-3v-1.93c0-2.244 1.826-4.07 4.07-4.07.806 0 1.586.236 2.257.684l.563.375c1.847 1.232 4.372 1.232 6.219 0l.562-.375c.672-.448 1.453-.684 2.259-.684 2.244 0 4.07 1.826 4.07 4.07v1.93c0 1.654 1.346 3 3 3z"/><path d="m9 28c-2.757 0-5-2.243-5-5s2.243-5 5-5v2c-1.654 0-3 1.346-3 3s1.346 3 3 3z"/><path d="m35 28v-2c1.654 0 3-1.346 3-3s-1.346-3-3-3v-2c2.757 0 5 2.243 5 5s-2.243 5-5 5z"/><path d="m22 37c-3.86 0-7-3.141-7-7h2c0 2.757 2.243 5 5 5s5-2.243 5-5h2c0 3.859-3.14 7-7 7z"/><path d="m16.5 25c-.827 0-1.5-.673-1.5-1.5s.673-1.5 1.5-1.5 1.5.673 1.5 1.5-.673 1.5-1.5 1.5z"/><path d="m27.5 25c-.827 0-1.5-.673-1.5-1.5s.673-1.5 1.5-1.5 1.5.673 1.5 1.5-.673 1.5-1.5 1.5z"/><path d="m28 28c-2.757 0-5-2.243-5-5s2.243-5 5-5 5 2.243 5 5-2.243 5-5 5zm0-8c-1.654 0-3 1.346-3 3s1.346 3 3 3 3-1.346 3-3-1.346-3-3-3z"/><path d="m16 28c-2.757 0-5-2.243-5-5s2.243-5 5-5 5 2.243 5 5-2.243 5-5 5zm0-8c-1.654 0-3 1.346-3 3s1.346 3 3 3 3-1.346 3-3-1.346-3-3-3z"/><path d="m20 22h4v2h-4z"/><path d="m47 63c-8.822 0-16-7.178-16-16s7.178-16 16-16 16 7.178 16 16-7.178 16-16 16zm0-30c-7.72 0-14 6.28-14 14s6.28 14 14 14 14-6.28 14-14-6.28-14-14-14z"/><path d="m42 54h-4c-.552 0-1-.447-1-1v-6c0-.553.448-1 1-1h4c.552 0 1 .447 1 1v6c0 .553-.448 1-1 1zm-3-2h2v-4h-2z"/><path d="m50 46h-4c-.552 0-1-.447-1-1v-6c0-.553.448-1 1-1h4c.552 0 1 .447 1 1v6c0 .553-.448 1-1 1zm-3-2h2v-4h-2z"/><path d="m58 50h-4c-.552 0-1-.447-1-1v-6c0-.553.448-1 1-1h4c.552 0 1 .447 1 1v6c0 .553-.448 1-1 1zm-3-2h2v-4h-2z"/><path d="m47 36h2v3h-2z"/><path d="m47 45h2v3h-2z"/><path d="m39 44h2v3h-2z"/><path d="m39 53h2v3h-2z"/><path d="m55 40h2v3h-2z"/><path d="m55 49h2v3h-2z"/></svg>