<?xml version="1.0" encoding="utf-8"?>
<!-- Generator: Adobe Illustrator 19.0.0, SVG Export Plug-In . SVG Version: 6.00 Build 0)  -->
<svg version="1.1" id="Ñëîé_1" xmlns="http://www.w3.org/2000/svg" xmlns:xlink="http://www.w3.org/1999/xlink" x="0px" y="0px"
	 viewBox="0 0 600 450" style="enable-background:new 0 0 600 450;" xml:space="preserve">
<style type="text/css">
	.st0{fill:url(#SVGID_1_);}
	.st1{opacity:0.5;fill:url(#SVGID_2_);}
	.st2{opacity:0.4;fill:#0B0244;}
	.st3{opacity:0.7;}
	.st4{fill:url(#SVGID_3_);}
	.st5{fill:url(#SVGID_4_);}
	.st6{fill:url(#SVGID_5_);}
	.st7{fill:url(#SVGID_6_);}
	.st8{fill:url(#SVGID_7_);}
	.st9{fill:url(#SVGID_8_);}
	.st10{fill:url(#SVGID_9_);}
	.st11{fill:url(#SVGID_10_);}
	.st12{fill:url(#SVGID_11_);}
	.st13{fill:url(#SVGID_12_);}
	.st14{fill:url(#SVGID_13_);}
	.st15{opacity:0.7;fill:url(#SVGID_14_);}
	.st16{opacity:0.7;fill:url(#SVGID_15_);}
	.st17{opacity:0.7;fill:url(#SVGID_16_);}
	.st18{opacity:0.7;fill:url(#SVGID_17_);}
	.st19{opacity:0.7;fill:url(#SVGID_18_);}
	.st20{fill:#42E8E0;}
	.st21{fill:url(#SVGID_19_);}
	.st22{fill:url(#SVGID_20_);}
	.st23{opacity:0.1;fill:#180D5B;}
	.st24{fill:#FFFFFF;}
	.st25{fill:url(#SVGID_21_);}
	.st26{fill:url(#SVGID_22_);}
	.st27{fill:url(#SVGID_23_);}
	.st28{fill:#24126A;}
	.st29{fill:url(#SVGID_24_);}
	.st30{fill:#FCD1C5;}
	.st31{fill:#160A5B;}
	.st32{fill:#E2B1A6;}
	.st33{fill:#4846A5;}
	.st34{fill:#453C9E;}
	.st35{fill:#AA8383;}
	.st36{fill:#936D6D;}
	.st37{fill:#F0F6FF;}
	.st38{fill:#C4CCD6;}
	.st39{opacity:0.4;fill:#42E8E0;}
	.st40{opacity:0.6;fill:#42E8E0;}
	.st41{opacity:0.8;fill:#42E8E0;}
</style>
<g>
	
		<radialGradient id="SVGID_1_" cx="141.0078" cy="153.0036" r="265.165" fx="-109.0539" fy="64.7899" gradientUnits="userSpaceOnUse">
		<stop  offset="0" style="stop-color:#2B237C"/>
		<stop  offset="1" style="stop-color:#180D5B"/>
	</radialGradient>
	<rect x="0" y="0" class="st0" width="600" height="450"/>
</g>
<radialGradient id="SVGID_2_" cx="-2130.3652" cy="-319.7945" r="184.3703" gradientTransform="matrix(-0.866 0.5 0.866 0.5 -1277.7692 1536.9978)" gradientUnits="userSpaceOnUse">
	<stop  offset="0" style="stop-color:#42E8E0"/>
	<stop  offset="0.1539" style="stop-color:#33AEB9"/>
	<stop  offset="0.3113" style="stop-color:#267A95"/>
	<stop  offset="0.4663" style="stop-color:#1B5078"/>
	<stop  offset="0.6156" style="stop-color:#132E61"/>
	<stop  offset="0.7574" style="stop-color:#0D1651"/>
	<stop  offset="0.8889" style="stop-color:#090847"/>
	<stop  offset="1" style="stop-color:#080344"/>
</radialGradient>
<path class="st1" d="M130.5,404.1c88.2,50.9,231.2,50.9,319.3,0c88.2-50.9,88.2-133.5,0-184.4c-88.2-50.9-231.2-50.9-319.3,0
	C42.3,270.6,42.3,353.2,130.5,404.1z"/>
<path class="st2" d="M260.9,236.8c-0.8-0.7-2.2-1.1-3.2-1c-3.5,0.6-11.6,2.8-16.4,11.3c-5.6,10,1.4,17.7,2.8,19.1
	c-2.1,2.6-3.8,4.3-4.5,4.9c-2.2-1.4-4.5-2.9-6.9-4.5c-3.9-2.6-8-5.5-12.4-8.6c-1.1-0.8-2.2-1.6-3.3-2.4c-0.5-0.4-1.1-0.8-1.7-1.2
	c-0.5-0.4-1.1-0.8-1.6-1.2c-1.1-0.8-2.2-1.7-3.3-2.5c-1.1-0.8-2.2-1.7-3.3-2.5c1.2-1,3.5-3,6.4-5.8c2.4,0.3,15.4,1.4,21.3-7.5
	c5-7.6,1-13.4-1.1-15.6c-0.6-0.7-1.8-1.1-2.7-1.1c-3.3,0.2-11,1.4-17,8c-7,7.8-2,14.7-1,16c-2.8,2.7-5.1,4.6-6.3,5.7
	c-2.1-1.6-4.2-3.3-6.4-5c-1.1-0.9-2.2-1.8-3.4-2.7c-1.1-0.9-2.3-1.9-3.4-2.8c-3.6-3.1-7.3-6.3-10.8-9.5c0.6-0.4,1.6-1,3-1.9
	c1.5-1,3.3-2.2,5.3-3.6c2,0.4,14.2,2.3,21.1-5.3c5.7-6.3,2.8-11.6,1.1-13.8c-0.5-0.6-1.5-1.1-2.4-1.1c-3.1,0-10.5,0.5-17,6
	c-7.5,6.3-4.1,12.5-3.2,13.9c-3.8,2.7-6.9,4.7-8.3,5.5c-0.6-0.6-1.3-1.1-1.9-1.7c-5.9-5.4-11.4-11-16.3-16.4c0.9-0.4,3.6-1.7,7-4
	c0.8-0.5,1.6-1.1,2.4-1.6c1.9,0.3,11.9,1.3,16.8-5.4c4.2-5.7,1.3-10.2-0.3-11.9c-0.5-0.5-1.3-0.9-2.1-0.8c-2.6,0.1-8.6,0.9-13.5,5.8
	c-5.6,5.7-2.3,10.9-1.4,12.1c-4.3,3.1-8,4.9-9.2,5.5c-2.1-2.3-4.1-4.6-6-6.8c-1.3-1.6-2.6-3.1-3.8-4.6c0,0,0,0,0-0.1
	c0-0.1-0.1-0.2-0.3-0.3c-0.4-0.5-0.8-1.1-1.2-1.6c0.5-0.7,2.5-3.8,5-7.7c2,0.1,11.4-0.1,14.1-7.5c2.4-6.4-1.5-10.7-3.4-12.4
	c-0.6-0.5-1.5-0.8-2.2-0.6c-2.4,0.4-7.8,1.9-11,7.6c-3.8,6.6,0.8,11.8,1.8,12.8c-2.2,3.5-4.1,6.4-4.8,7.4c-3.9-5.1-7.2-10-9.8-14.4
	c-0.5-0.8-1-1.6-1.4-2.3c-0.5-0.8-0.8-1.5-1.2-2.2c-0.1-0.2-0.2-0.4-0.3-0.6c1-0.6,4.4-3.2,1.3-9.8c-2.7-5.8-7.1-8.9-9.1-10.1
	c-0.6-0.3-1.3-0.4-1.8-0.2c-1.6,0.7-4.7,2.9-2.7,8.9c2.4,7.1,10.1,10.5,11.7,11.1c0.1,0.2,0.2,0.4,0.3,0.6c0.4,0.7,0.7,1.5,1.2,2.2
	c0.5,0.8,0.9,1.5,1.4,2.3c2.9,4.9,6.5,10.4,10.9,16.2c-2.5-0.6-8.6-2.1-15.6-3.7c-0.9-1-5.6-5.8-17.5-8.4
	c-10.3-2.3-15.7-1.2-17.7-0.5c-0.6,0.2-0.7,0.7-0.4,1.2c1.3,1.7,5.3,5.8,16.1,8.8c12.5,3.5,18.4,0.2,19.5-0.6
	c7.4,1.7,13.8,3.3,16,3.8c1.2,1.6,2.5,3.3,3.9,4.9c2.3,2.8,4.7,5.6,7.3,8.5c-1.6,0.1-6.1,0.5-12.3,0.7c-1.3-0.9-8-5.3-20.3-5.6
	c-10.5-0.2-14.8,2.2-16.3,3.4c-0.4,0.3-0.3,0.9,0.3,1.4c2.1,1.7,7.8,5.3,19.1,6.3c13.1,1.1,16.7-4,17.3-5.1c6.4-0.2,11-0.6,12.5-0.7
	c4.5,5,9.5,10,14.7,15c1.1,1.1,2.3,2.2,3.5,3.3c-1.5,0.2-5.9,0.9-12.1,1.6c-1.7-1-10.1-5.3-23.1-4.2c-11.2,1-15.2,4.4-16.4,5.9
	c-0.4,0.5-0.1,1.1,0.7,1.6c2.6,1.7,9.7,5.4,22,5.2c14.5-0.2,16.8-6.9,17-8.2c6.4-0.7,10.9-1.4,12.3-1.6c3,2.7,6,5.4,9.1,8.1
	c1.1,1,2.2,1.9,3.3,2.8c1.1,0.9,2.2,1.9,3.3,2.8c2.3,1.8,4.5,3.6,6.7,5.4c0.3,0.2,0.6,0.4,0.8,0.7c-1,0.4-4,1.4-8.6,2.7
	c-2-0.9-12.5-5.3-26.5-2.3c-12,2.5-15.4,7.2-16.3,9.2c-0.3,0.6,0.2,1.4,1.2,1.9c3.4,1.8,12.2,5.4,25.6,3.6
	c16.1-2.1,16.4-10.7,16.4-12.1c4.7-1.3,7.7-2.3,8.7-2.7c0.7,0.5,1.4,1.1,2,1.6c1.1,0.9,2.2,1.7,3.3,2.5c0.5,0.4,1.1,0.8,1.6,1.2
	c0.6,0.4,1.1,0.8,1.6,1.2c1.1,0.8,2.2,1.6,3.2,2.4c4.3,3.1,8.4,6.1,12.3,8.7c2.6,1.8,5.1,3.5,7.5,5c-1,0.4-4,1.6-8.7,3.1
	c-1.7-0.8-13.6-5.8-29.3-2c-13,3.1-16.4,8.4-17.3,10.7c-0.3,0.7,0.3,1.6,1.4,2.1c3.8,1.9,13.6,5.7,28.2,3.4
	c17.1-2.7,17.3-12,17.2-13.8c4.9-1.6,8-2.8,8.9-3.2c4.4,2.9,8.3,5.3,11.3,7.2c2.4,1.5,4.3,2.6,5.6,3.4c1.3,0.8,2,1.2,2,1.2l1.5-1.3
	c0,0-0.7-0.4-2-1.1c-1.3-0.7-3.2-1.9-5.6-3.3c-3.2-1.9-7.2-4.4-11.9-7.4c0.7-0.7,2.4-2.3,4.6-5c2.2,0.1,17.1,0.3,21.3-11.2
	C269.5,245.8,263.8,239.3,260.9,236.8z"/>
<g>
	<g class="st3">
		
			<linearGradient id="SVGID_3_" gradientUnits="userSpaceOnUse" x1="-445.3844" y1="474.2504" x2="-384.9151" y2="474.2504" gradientTransform="matrix(-0.8519 0.5237 0.5237 0.8519 -404.4604 87.987)">
			<stop  offset="0" style="stop-color:#42E8E0"/>
			<stop  offset="0.1507" style="stop-color:#43E3E0"/>
			<stop  offset="0.3285" style="stop-color:#45D5DF"/>
			<stop  offset="0.5199" style="stop-color:#49BDDD"/>
			<stop  offset="0.7209" style="stop-color:#4E9CDB"/>
			<stop  offset="0.9274" style="stop-color:#5472D8"/>
			<stop  offset="1" style="stop-color:#5761D7"/>
		</linearGradient>
		<path class="st4" d="M230.9,271.1c0,0-8.6,19-35.2,19.3c-20.3,0.2-28.8-8.5-31.7-12.6c-0.8-1.2-0.7-2.8,0.3-3.9
			c3.4-3.6,12.8-11.6,32-13.6C221.3,257.7,230.9,271.1,230.9,271.1z"/>
	</g>
	<g class="st3">
		
			<linearGradient id="SVGID_4_" gradientUnits="userSpaceOnUse" x1="353.107" y1="369.4076" x2="413.5764" y2="369.4076" gradientTransform="matrix(0.9583 -0.2858 0.2858 0.9583 -190.4149 -7.8432)">
			<stop  offset="0" style="stop-color:#42E8E0"/>
			<stop  offset="0.1507" style="stop-color:#43E3E0"/>
			<stop  offset="0.3285" style="stop-color:#45D5DF"/>
			<stop  offset="0.5199" style="stop-color:#49BDDD"/>
			<stop  offset="0.7209" style="stop-color:#4E9CDB"/>
			<stop  offset="0.9274" style="stop-color:#5472D8"/>
			<stop  offset="1" style="stop-color:#5761D7"/>
		</linearGradient>
		<path class="st5" d="M257.7,259.1c0,0,19.9,6.3,37.8-13.3c13.7-15,12.9-27.1,11.8-32c-0.3-1.4-1.6-2.4-3.1-2.4
			c-4.9,0.1-17.2,1.8-31.4,14.8C254.1,243.1,257.7,259.1,257.7,259.1z"/>
	</g>
	<g class="st3">
		
			<linearGradient id="SVGID_5_" gradientUnits="userSpaceOnUse" x1="155.2991" y1="301.756" x2="208.0658" y2="301.756" gradientTransform="matrix(0.988 -0.1542 0.1542 0.988 40.4747 -75.1227)">
			<stop  offset="0" style="stop-color:#42E8E0"/>
			<stop  offset="0.1507" style="stop-color:#43E3E0"/>
			<stop  offset="0.3285" style="stop-color:#45D5DF"/>
			<stop  offset="0.5199" style="stop-color:#49BDDD"/>
			<stop  offset="0.7209" style="stop-color:#4E9CDB"/>
			<stop  offset="0.9274" style="stop-color:#5472D8"/>
			<stop  offset="1" style="stop-color:#5761D7"/>
		</linearGradient>
		<path class="st6" d="M242.4,211.5c0,0,16.5,7.7,34.3-7.1c13.6-11.4,14.3-21.9,13.9-26.3c-0.1-1.3-1.1-2.3-2.4-2.4
			c-4.3-0.5-15.1-0.4-28.9,9.1C241.2,197.3,242.4,211.5,242.4,211.5z"/>
	</g>
	<g class="st3">
		
			<linearGradient id="SVGID_6_" gradientUnits="userSpaceOnUse" x1="14.9787" y1="264.8012" x2="63.0407" y2="264.8012" gradientTransform="matrix(0.9982 -6.040000e-002 6.040000e-002 0.9982 202.6778 -102.3526)">
			<stop  offset="0" style="stop-color:#42E8E0"/>
			<stop  offset="0.1507" style="stop-color:#43E3E0"/>
			<stop  offset="0.3285" style="stop-color:#45D5DF"/>
			<stop  offset="0.5199" style="stop-color:#49BDDD"/>
			<stop  offset="0.7209" style="stop-color:#4E9CDB"/>
			<stop  offset="0.9274" style="stop-color:#5472D8"/>
			<stop  offset="1" style="stop-color:#5761D7"/>
		</linearGradient>
		<path class="st7" d="M234.3,172.5c0,0,14.3,8.4,31.7-3.5c13.3-9.1,14.9-18.7,14.9-22.6c0-1.2-0.8-2.2-1.9-2.4
			c-3.8-0.8-13.6-1.7-27,5.7C234.5,159.5,234.3,172.5,234.3,172.5z"/>
	</g>
	<g class="st3">
		
			<linearGradient id="SVGID_7_" gradientUnits="userSpaceOnUse" x1="109.4456" y1="228.422" x2="150.0439" y2="228.422" gradientTransform="matrix(0.992 -0.1264 0.1264 0.992 91.9587 -85.0939)">
			<stop  offset="0" style="stop-color:#42E8E0"/>
			<stop  offset="0.1507" style="stop-color:#43E3E0"/>
			<stop  offset="0.3285" style="stop-color:#45D5DF"/>
			<stop  offset="0.5199" style="stop-color:#49BDDD"/>
			<stop  offset="0.7209" style="stop-color:#4E9CDB"/>
			<stop  offset="0.9274" style="stop-color:#5472D8"/>
			<stop  offset="1" style="stop-color:#5761D7"/>
		</linearGradient>
		<path class="st8" d="M230.6,137.3c0,0,12.5,6.3,26.5-4.7c10.7-8.4,11.5-16.6,11.3-19.9c-0.1-1-0.8-1.8-1.8-1.9
			c-3.3-0.5-11.6-0.7-22.4,6.4C230,126.3,230.6,137.3,230.6,137.3z"/>
	</g>
	<g class="st3">
		
			<linearGradient id="SVGID_8_" gradientUnits="userSpaceOnUse" x1="338.9115" y1="218.4048" x2="379.5097" y2="218.4048" gradientTransform="matrix(0.959 -0.2835 0.2835 0.959 -163.474 -15.673)">
			<stop  offset="0" style="stop-color:#42E8E0"/>
			<stop  offset="0.1507" style="stop-color:#43E3E0"/>
			<stop  offset="0.3285" style="stop-color:#45D5DF"/>
			<stop  offset="0.5199" style="stop-color:#49BDDD"/>
			<stop  offset="0.7209" style="stop-color:#4E9CDB"/>
			<stop  offset="0.9274" style="stop-color:#5472D8"/>
			<stop  offset="1" style="stop-color:#5761D7"/>
		</linearGradient>
		<path class="st9" d="M226.2,107c0,0,13.4,4.2,25.4-8.9c9.2-10,8.7-18.2,7.9-21.5c-0.2-1-1.1-1.6-2.1-1.6
			c-3.3,0.1-11.5,1.2-21.1,9.9C223.9,96.2,226.2,107,226.2,107z"/>
	</g>
	<g class="st3">
		
			<linearGradient id="SVGID_9_" gradientUnits="userSpaceOnUse" x1="-411.6897" y1="405.0521" x2="-356.9567" y2="405.0521" gradientTransform="matrix(-0.8686 0.4955 0.4955 0.8686 -350.6795 65.1593)">
			<stop  offset="0" style="stop-color:#42E8E0"/>
			<stop  offset="0.1507" style="stop-color:#43E3E0"/>
			<stop  offset="0.3285" style="stop-color:#45D5DF"/>
			<stop  offset="0.5199" style="stop-color:#49BDDD"/>
			<stop  offset="0.7209" style="stop-color:#4E9CDB"/>
			<stop  offset="0.9274" style="stop-color:#5472D8"/>
			<stop  offset="1" style="stop-color:#5761D7"/>
		</linearGradient>
		<path class="st10" d="M214.1,224.4c0,0-8.4,16.9-32.4,16.4c-18.4-0.4-25.8-8.5-28.3-12.3c-0.7-1.1-0.6-2.6,0.4-3.5
			c3.1-3.2,11.9-10.1,29.3-11.3C205.8,212,214.1,224.4,214.1,224.4z"/>
	</g>
	<g class="st3">
		
			<linearGradient id="SVGID_10_" gradientUnits="userSpaceOnUse" x1="-215.6975" y1="283.0768" x2="-168.9113" y2="283.0768" gradientTransform="matrix(-0.9328 0.3604 0.3604 0.9328 -106.4048 -14.3074)">
			<stop  offset="0" style="stop-color:#42E8E0"/>
			<stop  offset="0.1507" style="stop-color:#43E3E0"/>
			<stop  offset="0.3285" style="stop-color:#45D5DF"/>
			<stop  offset="0.5199" style="stop-color:#49BDDD"/>
			<stop  offset="0.7209" style="stop-color:#4E9CDB"/>
			<stop  offset="0.9274" style="stop-color:#5472D8"/>
			<stop  offset="1" style="stop-color:#5761D7"/>
		</linearGradient>
		<path class="st11" d="M200.8,182.4c0,0-9.2,13.3-29.5,9.8c-15.5-2.7-20.7-10.5-22.3-14c-0.5-1-0.2-2.2,0.7-2.9
			c3.1-2.3,11.4-7,26.2-5.9C195.4,171,200.8,182.4,200.8,182.4z"/>
	</g>
	<g class="st3">
		
			<linearGradient id="SVGID_11_" gradientUnits="userSpaceOnUse" x1="-14.2217" y1="200.1195" x2="26.9905" y2="200.1195" gradientTransform="matrix(-0.9758 0.2187 0.2187 0.9758 136.859 -56.4709)">
			<stop  offset="0" style="stop-color:#42E8E0"/>
			<stop  offset="0.1507" style="stop-color:#43E3E0"/>
			<stop  offset="0.3285" style="stop-color:#45D5DF"/>
			<stop  offset="0.5199" style="stop-color:#49BDDD"/>
			<stop  offset="0.7209" style="stop-color:#4E9CDB"/>
			<stop  offset="0.9274" style="stop-color:#5472D8"/>
			<stop  offset="1" style="stop-color:#5761D7"/>
		</linearGradient>
		<path class="st12" d="M196.7,145.3c0,0-9.8,10.3-26.9,4.7c-13.2-4.3-16.7-11.8-17.6-15.1c-0.3-1,0.2-2,1-2.4
			c3-1.6,10.8-4.6,23.6-1.7C193.4,134.6,196.7,145.3,196.7,145.3z"/>
	</g>
	<g class="st3">
		
			<linearGradient id="SVGID_12_" gradientUnits="userSpaceOnUse" x1="424.1216" y1="171.8189" x2="462.6554" y2="171.8189" gradientTransform="matrix(-0.9959 -9.020000e-002 -9.020000e-002 0.9959 634.632 -30.6625)">
			<stop  offset="0" style="stop-color:#42E8E0"/>
			<stop  offset="0.1507" style="stop-color:#43E3E0"/>
			<stop  offset="0.3285" style="stop-color:#45D5DF"/>
			<stop  offset="0.5199" style="stop-color:#49BDDD"/>
			<stop  offset="0.7209" style="stop-color:#4E9CDB"/>
			<stop  offset="0.9274" style="stop-color:#5472D8"/>
			<stop  offset="1" style="stop-color:#5761D7"/>
		</linearGradient>
		<path class="st13" d="M195.9,111.4c0,0-11.6,6.4-25.3-3.5c-10.5-7.6-11.5-15.3-11.4-18.5c0-0.9,0.7-1.7,1.6-1.9
			c3.1-0.6,10.9-1,21.5,5.3C196.1,100.9,195.9,111.4,195.9,111.4z"/>
	</g>
	<g class="st3">
		
			<linearGradient id="SVGID_13_" gradientUnits="userSpaceOnUse" x1="1533.5887" y1="1354.4753" x2="1566.6417" y2="1354.4753" gradientTransform="matrix(-0.2224 -0.975 -0.975 0.2224 1885.0087 1274.6982)">
			<stop  offset="0" style="stop-color:#42E8E0"/>
			<stop  offset="0.1507" style="stop-color:#43E3E0"/>
			<stop  offset="0.3285" style="stop-color:#45D5DF"/>
			<stop  offset="0.5199" style="stop-color:#49BDDD"/>
			<stop  offset="0.7209" style="stop-color:#4E9CDB"/>
			<stop  offset="0.9274" style="stop-color:#5472D8"/>
			<stop  offset="1" style="stop-color:#5761D7"/>
		</linearGradient>
		<path class="st14" d="M215.6,82.4c0,0-8.3-7.8-3.8-21.6c3.4-10.6,9.4-13.4,12.1-14.2c0.8-0.2,1.6,0.1,2,0.8
			c1.3,2.4,3.7,8.7,1.4,18.9C224.2,79.8,215.6,82.4,215.6,82.4z"/>
	</g>
	
		<linearGradient id="SVGID_14_" gradientUnits="userSpaceOnUse" x1="697.8309" y1="147.0008" x2="856.6416" y2="147.0008" gradientTransform="matrix(-0.9599 -0.2802 -0.2802 0.9599 1016.5353 249.8787)">
		<stop  offset="0" style="stop-color:#42E8E0"/>
		<stop  offset="0.1507" style="stop-color:#43E3E0"/>
		<stop  offset="0.3285" style="stop-color:#45D5DF"/>
		<stop  offset="0.5199" style="stop-color:#49BDDD"/>
		<stop  offset="0.7209" style="stop-color:#4E9CDB"/>
		<stop  offset="0.9274" style="stop-color:#5472D8"/>
		<stop  offset="1" style="stop-color:#5761D7"/>
	</linearGradient>
	<path class="st15" d="M180.6,276.1c0-0.2,0.2-0.4,0.4-0.4c32.5-0.2,59.3-6.8,63.6-7.9c-1.4-3.1-2.9-6.5-4.4-10.2
		c-2.3-5.4-4.5-11.2-6.8-17.5c-0.6-1.6-1.1-3.2-1.7-4.8c-0.3-0.8-0.6-1.6-0.9-2.4c-0.3-0.8-0.5-1.6-0.8-2.5c-0.5-1.7-1.1-3.3-1.7-5
		c-0.3-1-0.7-2.1-1-3.2c-4,0.9-26.5,5.6-58.8,5.5c-0.2,0-0.4-0.2-0.4-0.4c0-0.2,0.2-0.4,0.4-0.4c32.1,0.1,54.5-4.5,58.6-5.4
		c-0.1-0.4-0.3-0.9-0.4-1.3c-1.1-3.5-2.1-7-3.1-10.6c-0.5-1.8-1-3.6-1.4-5.4c-0.5-1.8-1-3.7-1.4-5.5c-1.2-5.1-2.4-10.4-3.4-15.6
		c-4.3,0-31.2-0.1-56.8-3.7c-0.2,0-0.3-0.2-0.3-0.4c0-0.2,0.2-0.3,0.4-0.3c25.2,3.5,51.8,3.7,56.5,3.7c-0.4-2.1-0.8-4.2-1.1-6.3
		c-1.6-9.5-2.9-19.1-3.6-28.6c-4.4-0.3-26.6-2.3-48.2-9.2c-0.2-0.1-0.3-0.3-0.2-0.5c0.1-0.2,0.3-0.3,0.5-0.2
		c21.4,6.8,43.3,8.8,47.9,9.1c-0.4-5.4-0.7-10.7-0.8-15.9c-0.1-3.1-0.1-6.1,0-9.1c-4.8-3.1-30.2-19.3-42.3-25.7
		c-0.2-0.1-0.2-0.3-0.2-0.5c0.1-0.2,0.3-0.2,0.5-0.2c11.9,6.3,36.3,21.9,42,25.5c0.2-10.7,1-20.7,2.3-29.5c0.2-1.4,0.4-2.8,0.6-4.2
		c0.2-1.4,0.5-2.7,0.7-4c0.5-2.6,0.9-5.1,1.3-7.4c0.5-2.3,1-4.4,1.5-6.4c0.5-2,0.9-3.8,1.3-5.4c1.9-6.5,3-10.2,3-10.2l0.2,0.1
		c0,0-1,3.7-2.8,10.2c-0.4,1.6-0.8,3.5-1.2,5.4c-0.4,2-0.9,4.1-1.4,6.4c-0.4,2.3-0.8,4.8-1.2,7.4c-0.2,1.3-0.5,2.6-0.6,4
		c-0.2,1.4-0.3,2.8-0.5,4.2c-1,7.9-1.7,16.8-1.8,26.3c4.4-3.6,26.5-22.2,38.7-33.5c0.1-0.1,0.4-0.1,0.5,0c0.1,0.1,0.1,0.4,0,0.5
		c-12.7,11.8-36.4,31.6-39.2,33.9c0,1,0,2,0,2.9c0.2,0.1,0.2,0.3,0.1,0.5c0,0-0.1,0.1-0.1,0.1c0,2.8,0.1,5.7,0.2,8.6
		c0.1,4.2,0.4,8.5,0.8,12.8c4-1.3,24.6-8.2,45.3-24.8c0.2-0.1,0.4-0.1,0.5,0.1c0.1,0.2,0.1,0.4-0.1,0.5c-12.1,9.7-24.3,16.2-33,20.1
		c-6.4,2.9-11,4.4-12.6,4.9c0.9,10.3,2.3,20.9,4.2,31.3c0.2,1.1,0.4,2.2,0.6,3.3c5.7-2.4,28.7-12.5,50.1-25.6
		c0.2-0.1,0.4-0.1,0.5,0.1c0.1,0.2,0.1,0.4-0.1,0.5c-17.1,10.5-35.2,19.1-44.7,23.3c-2.5,1.1-4.4,1.9-5.6,2.4
		c1.2,6.2,2.7,12.3,4.2,18.4c0.5,1.8,1,3.6,1.5,5.5c0.5,1.8,0.9,3.6,1.5,5.4c1,3.4,2,6.7,3,9.9c6.6-3.7,29.2-16.7,49.9-33.2
		c0.2-0.1,0.4-0.1,0.5,0.1c0.1,0.2,0.1,0.4-0.1,0.5c-20.8,16.6-43.6,29.7-50.1,33.3c0.5,1.7,1.1,3.3,1.6,5c0.6,1.7,1.2,3.3,1.7,5
		c0.3,0.8,0.6,1.6,0.8,2.4c0.3,0.8,0.6,1.6,0.9,2.4c0.6,1.6,1.2,3.2,1.7,4.7c2.4,6.2,4.7,12,7,17.2c1.4,3.3,2.8,6.4,4.1,9.2
		c4.3-2.6,26.3-16.7,49.4-42.1c0.1-0.1,0.4-0.2,0.5,0c0.1,0.1,0.2,0.4,0,0.5c-23.3,25.5-45.5,39.7-49.6,42.2
		c2.8,6.1,5.4,11.3,7.5,15.2c1.6,3,2.8,5.3,3.7,6.8c0.9,1.6,1.4,2.4,1.4,2.4l-3.1,1.9c0,0-0.5-0.9-1.4-2.5c-0.9-1.6-2.1-4-3.7-7
		c-2-3.9-4.4-8.8-7-14.7c-3.9,1-31,7.8-63.9,8C180.8,276.5,180.6,276.3,180.6,276.1z"/>
</g>
<g>
	
		<linearGradient id="SVGID_15_" gradientUnits="userSpaceOnUse" x1="139.8839" y1="233.3545" x2="199.9415" y2="233.3545" gradientTransform="matrix(0.9924 0.1233 -0.1233 0.9924 212.7758 -28.258)">
		<stop  offset="0" style="stop-color:#42E8E0"/>
		<stop  offset="0.1507" style="stop-color:#43E3E0"/>
		<stop  offset="0.3285" style="stop-color:#45D5DF"/>
		<stop  offset="0.5199" style="stop-color:#49BDDD"/>
		<stop  offset="0.7209" style="stop-color:#4E9CDB"/>
		<stop  offset="0.9274" style="stop-color:#5472D8"/>
		<stop  offset="1" style="stop-color:#5761D7"/>
	</linearGradient>
	<path class="st16" d="M387.4,186.9C387.4,186.9,387.4,186.9,387.4,186.9c1.6-53.5-14.3-69.4-28.9-57c-6.4,5.5-8.8,14.4-6.7,22.6
		c0.7,2.7,1.1,5.5,0.7,8.6c-0.5,4-2.5,6.5-5.1,8.2c-5.5,3.5-9.3,9.2-10.1,15.7c-0.4,3.5-0.8,7.2-1,11
		c-4.1,63.6-20.5,102.1-25.1,117.3c-1.4,4.7,4,8.5,7.9,5.6c10.7-7.9,39.4-32,55.9-73c2.3-5.8,2-12.2-0.6-17.8
		c-1-2.2-1.5-4.9-1.2-8.5c0.7-8,5-14.4,9.6-20.4C385.7,195.7,387.3,191.4,387.4,186.9z"/>
	
		<linearGradient id="SVGID_16_" gradientUnits="userSpaceOnUse" x1="142.1118" y1="233.2331" x2="199.2925" y2="233.2331" gradientTransform="matrix(0.9924 0.1233 -0.1233 0.9924 212.7758 -28.258)">
		<stop  offset="0" style="stop-color:#42E8E0"/>
		<stop  offset="0.1507" style="stop-color:#43E3E0"/>
		<stop  offset="0.3285" style="stop-color:#45D5DF"/>
		<stop  offset="0.5199" style="stop-color:#49BDDD"/>
		<stop  offset="0.7209" style="stop-color:#4E9CDB"/>
		<stop  offset="0.9274" style="stop-color:#5472D8"/>
		<stop  offset="1" style="stop-color:#5761D7"/>
	</linearGradient>
	<path class="st17" d="M362.2,191.7l25.3-10.1c0-0.1,0-0.3,0-0.4l-25.3,10.1c1.8-14.8,2.9-30.6,3.4-47.1l16.2-4.5
		c-0.1-0.1-0.1-0.3-0.2-0.4l-16.1,4.4c0.2-5.8,0.3-11.6,0.3-17.6c-0.1,0-0.3,0.1-0.4,0.1c-0.1,17-0.8,32.5-2,46.6l-11.6-9.2
		c0,0.1-0.1,0.3-0.1,0.4l11.7,9.3c-1.6,18.7-3.9,35-6.7,49.3l-21-19.7c0,0.2,0,0.3,0,0.5l20.9,19.7c-4.8,24-10.9,41.9-16.5,54.9
		c-0.3,0.8-0.7,1.5-1,2.3l-12.3-18.7c0,0.2-0.1,0.4-0.1,0.5l12.3,18.6c-11.4,25-23,35.5-26.2,38.1c0.1,0.1,0.2,0.2,0.3,0.3
		c2.3-1.9,8.6-7.6,16.1-19.3l11.3,0.2c0,0,0.1-0.1,0.1-0.1c0.1-0.1,0.1-0.2,0.2-0.2c0,0,0,0,0,0l-11.4-0.2
		c3.5-5.6,7.3-12.6,11.1-21.1c4-9,7.5-18.9,10.5-29.6l24.4-3.4c0.1-0.1,0.1-0.3,0.2-0.4l-24.5,3.5c3.1-11,5.8-22.9,7.9-35.6
		C360.4,205.8,361.4,198.9,362.2,191.7z"/>
</g>
<path class="st2" d="M471.4,285c5.1-10,6.7-17.4,5.8-22.4c0,0,0-0.1,0-0.1l0,0c-1.1-5.6-5.4-8.2-11.3-8.1c0,0,0,0,0,0
	c-0.1,0-0.3,0-0.4,0c0,0,0,0,0,0c-2.3,0.1-4.9,0.6-7.7,1.5c-7.5,2.5-12.1,7-12.3,11.5c-0.1,1.5-0.4,3-1.6,4.6
	c-0.4,0.5-0.8,0.9-1.3,1.3c0,0-0.1,0.1-0.1,0.1c-1.5,1.2-3.5,2-5.6,2.5c-6.1,1.5-11.2,4.2-13.7,7.6c-1.3,1.8-2.6,3.8-3.9,5.8
	c-20.8,33.4-46.5,52.5-54.9,60.3c-1.2,1.1-1,2.2,0,2.9c0,0,0,0,0,0c0.1,0.1,0.2,0.1,0.2,0.2c0,0,0,0,0,0c1.2,0.8,3.4,1.1,5.7,0.4
	c5.2-1.5,14.4-4.3,25.2-8.6l0,0c0,0,0.1,0,0.1-0.1c0.1,0,0.2-0.1,0.3-0.1c0,0,0,0,0.1,0l0,0c14.3-5.8,31.5-14.2,46.5-25.8
	c0.2-0.2,0.4-0.3,0.6-0.5h0c0.1-0.1,0.2-0.1,0.3-0.2l-0.1,0c3.1-2.7,4.2-5.9,3.4-8.8c-0.4-1.2-0.1-2.7,1.1-4.6
	c2.8-4.2,8.6-7.3,14.5-10.1c3.5-1.7,6.1-3.9,7.4-6.2c0,0,0,0,0,0c0.5-0.9,1-1.9,1.5-2.8C471.3,285.2,471.4,285.1,471.4,285
	L471.4,285z"/>
<g>
	
		<linearGradient id="SVGID_17_" gradientUnits="userSpaceOnUse" x1="-60.3335" y1="313.4108" x2="17.4273" y2="313.4108" gradientTransform="matrix(0.9686 0.2485 -0.2485 0.9686 511.7584 -61.8312)">
		<stop  offset="0" style="stop-color:#42E8E0"/>
		<stop  offset="0.1507" style="stop-color:#43E3E0"/>
		<stop  offset="0.3285" style="stop-color:#45D5DF"/>
		<stop  offset="0.5199" style="stop-color:#49BDDD"/>
		<stop  offset="0.7209" style="stop-color:#4E9CDB"/>
		<stop  offset="0.9274" style="stop-color:#5472D8"/>
		<stop  offset="1" style="stop-color:#5761D7"/>
	</linearGradient>
	<path class="st18" d="M463.9,194.2C464,194.1,464,194.1,463.9,194.2c10.8-68.4-7-91.5-27.7-77.9c-9.2,6-13.7,17-12.3,27.9
		c0.5,3.6,0.5,7.2-0.5,11.2c-1.3,5-4.3,8-7.9,9.6c-7.7,3.6-13.5,10.3-15.5,18.6c-1.1,4.5-2.2,9.1-3.1,14
		c-15.7,81.1-43.1,127.7-51.5,146.6c-2.6,5.8,3.7,11.6,9.3,8.5c15.1-8.4,55.8-34.6,83.8-84.5c3.9-7,4.6-15.3,2.2-23
		c-0.9-3-1.1-6.6-0.1-11c2.2-10.2,8.8-17.7,15.7-24.7C460.3,205.1,463,199.9,463.9,194.2z"/>
	
		<linearGradient id="SVGID_18_" gradientUnits="userSpaceOnUse" x1="-57.4485" y1="313.2538" x2="16.5866" y2="313.2538" gradientTransform="matrix(0.9686 0.2485 -0.2485 0.9686 511.7584 -61.8312)">
		<stop  offset="0" style="stop-color:#42E8E0"/>
		<stop  offset="0.1507" style="stop-color:#43E3E0"/>
		<stop  offset="0.3285" style="stop-color:#45D5DF"/>
		<stop  offset="0.5199" style="stop-color:#49BDDD"/>
		<stop  offset="0.7209" style="stop-color:#4E9CDB"/>
		<stop  offset="0.9274" style="stop-color:#5472D8"/>
		<stop  offset="1" style="stop-color:#5761D7"/>
	</linearGradient>
	<path class="st19" d="M430.8,196.2l34.2-8.8c0-0.2,0.1-0.4,0.1-0.6l-34.1,8.8c4.7-18.8,8.8-38.8,12.2-60l21.6-3.1
		c0-0.2-0.1-0.3-0.1-0.5l-21.3,3c1.2-7.4,2.3-14.9,3.3-22.5c-0.2,0-0.4,0-0.5,0c-2.9,21.8-6.4,41.6-10.2,59.5l-13.4-13.8
		c-0.1,0.2-0.2,0.3-0.3,0.5l13.5,13.9c-5.1,23.8-10.8,44.4-16.7,62.2l-23.7-28.8c0,0.2-0.1,0.4-0.1,0.7l23.6,28.7
		c-10.1,30-20.8,52.1-30.3,67.8c-0.6,0.9-1.1,1.9-1.7,2.8L374,279.9c-0.1,0.2-0.2,0.5-0.3,0.7l12.7,26
		c-18.8,30.2-35.4,41.8-39.9,44.6c0.1,0.1,0.2,0.3,0.4,0.4c3.3-2,12.4-8.3,23.9-22.2l14.4,2.1c0.1,0,0.1-0.1,0.2-0.1
		c0.1-0.1,0.2-0.2,0.3-0.3c0,0,0,0,0.1-0.1l-14.6-2.1c5.5-6.6,11.5-14.9,17.7-25.3c6.6-10.9,12.7-23.1,18.4-36.3l31.9-0.4
		c0.1-0.2,0.2-0.4,0.3-0.5l-32,0.4c5.9-13.7,11.2-28.5,16.1-44.4C426.1,213.9,428.5,205.2,430.8,196.2z"/>
</g>
<g>
	<g>
		<path class="st20" d="M276.6,403.6c-1.8,0-3.5-0.4-4.8-1.1l0,0l-136.5-78.8c-1.3-0.7-2-1.8-2-2.9c0-1.4,1-2.7,2.8-3.8l135-77.9
			c3.2-1.9,8.1-2.1,10.9-0.4l136.5,78.8c1.3,0.7,2,1.8,2,2.9c0,1.4-1,2.7-2.8,3.8l-135,77.9C281,403.1,278.7,403.6,276.6,403.6z
			 M272.1,402c2.6,1.5,7.2,1.3,10.3-0.4l135-77.9c1.5-0.9,2.4-2,2.4-3.2c0-0.9-0.6-1.7-1.7-2.4l-136.5-78.8
			c-2.6-1.5-7.2-1.3-10.3,0.4l-135,77.9c-1.5,0.9-2.4,2-2.4,3.2c0,0.9,0.6,1.7,1.7,2.4L272.1,402L272.1,402z"/>
		<linearGradient id="SVGID_19_" gradientUnits="userSpaceOnUse" x1="577.5276" y1="533.8157" x2="257.1606" y2="298.3493">
			<stop  offset="0" style="stop-color:#5761D7"/>
			<stop  offset="0.1779" style="stop-color:#5C66D9"/>
			<stop  offset="0.3876" style="stop-color:#6A73DF"/>
			<stop  offset="0.6134" style="stop-color:#8289E8"/>
			<stop  offset="0.849" style="stop-color:#A3A7F5"/>
			<stop  offset="1" style="stop-color:#BCBEFF"/>
		</linearGradient>
		<path class="st21" d="M420.1,308.8l-8.2,0l-130.1-75.1c-2.7-1.6-7.5-1.4-10.6,0.4l-129.6,74.8l-8,0v6.6h0c0,1,0.6,2,1.8,2.7
			L272,397c2.7,1.6,7.5,1.4,10.6-0.4l135-77.9c1.8-1,2.6-2.3,2.6-3.6h0V308.8z"/>
		<linearGradient id="SVGID_20_" gradientUnits="userSpaceOnUse" x1="-83.4249" y1="308.8034" x2="385.8549" y2="308.8034">
			<stop  offset="0" style="stop-color:#C0BFF6"/>
			<stop  offset="0.2938" style="stop-color:#C5C4F7"/>
			<stop  offset="0.6399" style="stop-color:#D3D2F9"/>
			<stop  offset="1" style="stop-color:#E9E9FD"/>
		</linearGradient>
		<path class="st22" d="M272,390.4l-136.5-78.8c-2.7-1.6-2.4-4.3,0.8-6.1l135-77.9c3.1-1.8,7.9-2,10.6-0.4L418.3,306
			c2.7,1.6,2.4,4.3-0.8,6.1l-135,77.9C279.4,391.8,274.7,392,272,390.4z"/>
		<path class="st23" d="M272.3,384.8l-127.1-73.4c-2.5-1.5-2.2-4,0.7-5.7l125.6-72.5c2.9-1.7,7.3-1.9,9.9-0.4l127.1,73.4
			c2.5,1.5,2.2,4-0.7,5.7l-125.6,72.5C279.2,386.1,274.8,386.3,272.3,384.8z"/>
		<path class="st24" d="M417.5,311.3l-135,77.9c-3.1,1.8-7.9,2-10.6,0.4l-136.5-78.8c-1.1-0.6-1.7-1.4-1.8-2.3
			c-0.2,1.1,0.4,2.2,1.8,3L272,390.4c2.7,1.6,7.5,1.4,10.6-0.4l135-77.9c1.9-1.1,2.8-2.5,2.6-3.8C419.9,309.3,419,310.4,417.5,311.3
			z"/>
	</g>
	<path class="st23" d="M278.3,312.5H408l2.7-10.9l-128.9-74.4c-2.7-1.6-7.5-1.4-10.6,0.4l-73.9,42.6l64.7,37.9
		C267,311,272.6,312.5,278.3,312.5z"/>
	<g>
		<g>
			<g>
				<g>
					<g>
						
							<linearGradient id="SVGID_21_" gradientUnits="userSpaceOnUse" x1="-2490.4739" y1="3631.4194" x2="-2184.6985" y2="3492.8281" gradientTransform="matrix(1 7.000000e-004 -7.000000e-004 1 2573.7136 -3298.1904)">
							<stop  offset="0" style="stop-color:#C0BFF6"/>
							<stop  offset="0.2938" style="stop-color:#C5C4F7"/>
							<stop  offset="0.6399" style="stop-color:#D3D2F9"/>
							<stop  offset="1" style="stop-color:#E9E9FD"/>
						</linearGradient>
						<path class="st25" d="M272.3,116.1l3.1-1.8l0,0c0.4-0.2,0.9-0.2,1.5,0.1l133,76.9c1.3,0.8,2.4,2.8,2.4,4.6l-0.1,112.7
							c0,1-0.3,1.6-0.9,1.9l0,0l-3.1,1.8l-0.2-11.2l-124.1-71.8c-1.3-0.8-2.4-2.8-2.4-4.6l0.1-103.5c-0.2,0.7-0.4,1.1-0.4,1.1
							C281.2,122.6,272.3,116.1,272.3,116.1z"/>
						
							<linearGradient id="SVGID_22_" gradientUnits="userSpaceOnUse" x1="2930.5811" y1="3503.0156" x2="2930.5811" y2="3491.8325" gradientTransform="matrix(-1 -7.000000e-004 -7.000000e-004 1 3333.4607 -3298.1047)">
							<stop  offset="0" style="stop-color:#C0BFF6"/>
							<stop  offset="0.2938" style="stop-color:#C5C4F7"/>
							<stop  offset="0.6399" style="stop-color:#D3D2F9"/>
							<stop  offset="1" style="stop-color:#E9E9FD"/>
						</linearGradient>
						<path class="st26" d="M412.2,195.2l-19.6,7.6l-4-2.3l21.7-8.8C411.3,192.5,412,193.9,412.2,195.2z"/>
						
							<linearGradient id="SVGID_23_" gradientUnits="userSpaceOnUse" x1="3468.8303" y1="4803.23" x2="3468.8303" y2="4699.999" gradientTransform="matrix(-0.8657 -0.5006 -8.000000e-004 1.1547 3347.0417 -3535.9534)">
							<stop  offset="0" style="stop-color:#C0BFF6"/>
							<stop  offset="0.2938" style="stop-color:#C5C4F7"/>
							<stop  offset="0.6399" style="stop-color:#D3D2F9"/>
							<stop  offset="1" style="stop-color:#E9E9FD"/>
						</linearGradient>
						<path class="st27" d="M273.7,235.4l133,76.9c1.3,0.8,2.4,0,2.4-1.8l0.1-112.7c0-1.8-1.1-3.8-2.4-4.6l-133-76.9
							c-1.3-0.8-2.4,0-2.4,1.8l-0.1,112.7C271.3,232.5,272.4,234.6,273.7,235.4z"/>
						<path class="st24" d="M406.9,193.1l-133-76.9c-0.8-0.5-1.5-0.3-1.9,0.2c0.4-0.1,0.8,0,1.3,0.2l133,76.9
							c1.3,0.8,2.4,2.8,2.4,4.6l-0.1,112.7c0,0.7-0.2,1.3-0.5,1.6c0.7-0.2,1.1-0.9,1.1-2.1l0.1-112.7
							C409.3,196,408.2,193.9,406.9,193.1z"/>
						<polygon class="st28" points="273.3,232.9 407.1,310.3 407.2,197.3 273.5,119.9 						"/>
					</g>
				</g>
			</g>
		</g>
		<linearGradient id="SVGID_24_" gradientUnits="userSpaceOnUse" x1="292.8029" y1="187.9039" x2="391.2239" y2="244.7273">
			<stop  offset="0" style="stop-color:#080545"/>
			<stop  offset="7.487187e-002" style="stop-color:#163D6B"/>
			<stop  offset="0.1539" style="stop-color:#23718E"/>
			<stop  offset="0.2318" style="stop-color:#2E9BAC"/>
			<stop  offset="0.3068" style="stop-color:#37BDC2"/>
			<stop  offset="0.3781" style="stop-color:#3DD5D3"/>
			<stop  offset="0.4442" style="stop-color:#41E3DD"/>
			<stop  offset="0.5" style="stop-color:#42E8E0"/>
			<stop  offset="0.5526" style="stop-color:#41E3DC"/>
			<stop  offset="0.6187" style="stop-color:#3DD3D2"/>
			<stop  offset="0.6919" style="stop-color:#36B9C0"/>
			<stop  offset="0.7704" style="stop-color:#2D96A8"/>
			<stop  offset="0.853" style="stop-color:#226889"/>
			<stop  offset="0.9377" style="stop-color:#143063"/>
			<stop  offset="1" style="stop-color:#080344"/>
		</linearGradient>
		<path class="st29" d="M334.4,232.5c-0.7,0-1.5-0.2-2.3-0.7l-11.9-6.9c-2.8-1.6-5-5.5-5-8.7v-3.4c0-3-2.1-6.6-4.7-8.1l-11.6-6.7
			c-1.2-0.7-2.3-0.8-3.1-0.3c-0.8,0.5-1.3,1.5-1.3,2.8v22c0,1.6-0.6,2.8-1.6,3.4c-1,0.6-2.4,0.5-3.8-0.3l-13.6-7.9l0.3-0.6l13.6,7.9
			c1.2,0.7,2.3,0.8,3.1,0.3c0.8-0.5,1.3-1.5,1.3-2.8v-22c0-1.6,0.6-2.8,1.6-3.4c1-0.6,2.4-0.5,3.8,0.3l11.6,6.7c2.8,1.6,5,5.5,5,8.7
			v3.4c0,3,2.1,6.6,4.7,8.1l11.9,6.9c1.2,0.7,2.3,0.8,3.1,0.3c0.8-0.5,1.3-1.5,1.3-2.8v-25c0-1.6,0.6-2.8,1.6-3.4
			c1-0.6,2.4-0.5,3.8,0.3l13.2,7.6c1.2,0.7,2.3,0.8,3.1,0.3c0.8-0.5,1.3-1.5,1.3-2.8v-12.9c0-1.6,0.6-2.8,1.6-3.4
			c1-0.6,2.4-0.5,3.8,0.3l13.8,7.9c2.8,1.6,5,5.5,5,8.7c0,3,2.1,6.6,4.7,8.1l15.2,8.8l-0.3,0.6l-15.2-8.8c-2.8-1.6-5-5.5-5-8.7
			c0-3-2.1-6.6-4.7-8.1l-13.8-7.9c-1.2-0.7-2.3-0.8-3.1-0.3c-0.8,0.5-1.3,1.5-1.3,2.8v12.9c0,1.6-0.6,2.8-1.6,3.4
			c-1,0.6-2.4,0.5-3.8-0.3l-13.2-7.6c-1.2-0.7-2.3-0.8-3.1-0.3c-0.8,0.5-1.3,1.5-1.3,2.8v25c0,1.6-0.6,2.8-1.6,3.4
			C335.4,232.4,334.9,232.5,334.4,232.5z"/>
	</g>
	<g>
		<path class="st30" d="M295.5,296.3c0,0-0.7,2.1-0.7,2.7c0.1,0.5,1.5,2.5,1.6,2.6c0.1,0.1,1.4,1.7,2.8,2.4c1.4,0.8,1.5,1.1,1.6,1.2
			c0.1,0,0.3-0.1,0.3-0.1s0.2-1.5-0.4-2.2c-0.6-0.7,0.3-1.8,0.3-1.8l-1.6-4.1L295.5,296.3z"/>
		<path class="st31" d="M310.8,342.2c0,0-2.5,0.6-4.9,0.7c-2.4,0.1-9,1.3-8.8,3.7c0.1,2.4,3.5,5.7,7.7,6.3c4.3,0.5,9.8-0.7,12.5-0.6
			c2.8,0.1,4.7-2.6,3.7-5.3C320,344.3,310.8,342.2,310.8,342.2z"/>
		<path class="st31" d="M325.3,335.9c0,0,0.9,1.4,0.4,2.3c-0.5,0.9-1.7,3-5.6,0.9c-3.8-2.1-11.3-5.1-11.3-5.1s-4.3-2.2-4-4.9
			c0.3-2.6,4.3-2.2,4.3-2.2L325.3,335.9z"/>
		<path class="st30" d="M282.4,241.6c0,0-2.5,0-3.7-0.5c-1.1-0.5-4.4-1.6-4.6-1.7c-0.2-0.1-2-0.2-2.8-0.8c0,0-0.9,0.4-0.2,1.2
			c0.7,0.7,2.1,1,2.1,1l1.3,0.8c0,0-2.6,1.3-2.8,1.4c-0.2,0.1-2.4,1.8-2.6,1.9c-0.2,0.1-1.2,0.9-0.8,1.5c0,0,0,0.2,0.5,0.3
			c0,0-1.4,0.6-1.1,1.3c0.3,0.7,1.2,0.4,1.2,0.4s0.3,1.2,2,0.3c0,0,0.2,1.5,3.9-0.1c0,0,1.5-0.4,2.6-0.3c1.1,0.1,4.1-0.7,5.7-1.8
			C284.9,245.4,282.4,241.6,282.4,241.6z"/>
		<path class="st32" d="M277.5,248.3c1.1,0.1,4.1-0.7,5.7-1.8c1.1-0.8,0.3-2.7-0.3-3.9c-0.8-0.4-1.4-0.7-1.4-0.7s0.1,3.7,0,4.3
			c-0.1,0.6-3.4,1.2-5.6,1.5c-2.1,0.3-5,1.1-5,1.1c0.2,0.3,0.9,1.1,3.9-0.2C274.9,248.7,276.4,248.3,277.5,248.3z"/>
		<path class="st33" d="M311.8,234.4c0,0-5.3,0.9-7.1,1.5c-1.7,0.6-16.9,3.6-22.5,4.9c-0.3,0.1-0.6,0.4-0.7,0.7
			c-0.1,0.3-0.1,0.6,0,0.9c0.2,0.6,0.7,6.9,3.8,5.9c0.9-0.3,3.6-0.9,5.8-1.2c2.2-0.3,11.4-1,11.4-1l15.7-9L311.8,234.4z"/>
		<path class="st28" d="M300.5,298.3c0,0,1.4,17.3,4.8,23.8c3.5,6.6,4.3,18.6,5,20.9c0.7,2.3,3,5.6,6.6,6.3c3.6,0.7,4.3-1.7,4.1-3.1
			c-0.1-1.4-1.1-3.8-1.1-5.3c0-1.6,0.4-2.3,0.5-3c0,0,4.2,1.2,4.9-1.9c0,0-0.3-0.9-0.4-1.4c0-0.5,0.6-11.9,0.8-13.3
			c0.1-1.4-0.5-8.9-1.6-12.6c-1.1-3.7-0.5-11.6-0.5-11.6l-12-1.8L300.5,298.3z"/>
		<path class="st31" d="M320,298.3c0,0-0.1,2.7-1.3,5c0,0-0.2,9.2-1.2,13.8c0,0,1.4,9.3,2.3,12.2c0.9,2.9,0.7,8.6,0.7,8.6
			s0.5,0.2,1.2,0.2c0.7,0,1-11.2,0-13.2c-1-2-1.6-10.8-1.2-13.5c0.5-2.7,0.5-10.4,1-11.8c0.6-1.4-0.6-2.1-0.6-2.1L320,298.3z"/>
		<path class="st31" d="M311,234.6c0,0-3.6,2.5-3.5,6.9l2.7-0.5C310.2,241,309.5,236.1,311,234.6z"/>
		<path class="st31" d="M311.2,302c8,0.3,12.4-3.1,12.4-3.1c0-1.1,0.1-1.8,0.1-1.8l-12-1.8l-11.1,2.9c0,0,0.3,3.4,0.9,7.8
			c2,0.2,4-4.5,4-4.5l5.5,0.4C310.8,302,303.2,301.7,311.2,302z"/>
		<path class="st34" d="M302,298.5c0,0,17.3,7.1,25.9-6c0.2-0.4,0.4-0.8,0.4-1.3l0-3.1c0-0.4,0.1-0.8,0.2-1.1l0,0
			c0.3-0.8,0.4-1.6,0.2-2.5c-0.6-3.5-2.1-12.9-2.5-15.5c-0.4-3.2,1.6-16.1,4.6-21.6c3-5.5-4.1-18.1-4.1-18.1s-1.8-3-5.3-2
			c0,0,3.4,2.4,1.4,4.9c-1.9,2.5-7.6,4.4-7.6,4.4s-10.4,5.2-14.1,11.6c0,0-1.3,3.3-1.4,7.6c-0.2,4.3,0.1,14.5-0.1,15.9
			c-0.2,1.4-0.9,11.1-0.8,11.5C298.9,283.6,302,298.5,302,298.5z"/>
		<path class="st28" d="M307.3,300c0,0,10.8-27.1,10.5-37.1c-0.3-9.8-15.4,19.5-15.4,19.5l-0.3,16.1
			C302,298.5,305.3,299.8,307.3,300z"/>
		<path class="st33" d="M302.3,267.7c0.4-2.2,0.7-4.5,0.7-6.8c0.1-3.9,1.3-10.5,8.5-9.2c10.1,1.7,5.5,15.7,4.4,18.2
			c-1.2,2.4-5.8,13.4-6,14c-0.2,0.6-7.4,14.2-10,17.4c-0.2,0.3-0.6,0.3-0.9,0.1c-1-0.8-3.2-2.9-3.5-4.1c-0.4-1.6,1.2-7.5,1.2-7.5
			s4.2-14.8,4.5-15.5C301.4,273.8,301.6,271.4,302.3,267.7z"/>
		<path class="st30" d="M311.2,234.9c0,0-0.8-1.9-2.7-2.1c-1.9-0.2-2.9-0.8-3.1-1.5c-0.2-0.7-0.2-1.5-0.6-2.6
			c-0.4-1-0.8-3.6-0.8-3.6c0-0.1-1.4-0.5-1.5-1.1c-0.1-0.6,0.7-2.9,0.6-3c-0.1-0.2-0.8-1.6-0.7-2.6c0.1-1.1,0.3-2.6,0.9-3.9
			c0.6-1.3,4.7-9.2,15.1-4.9c10.4,4.4,2.2,13,3.2,18.7c0,0,0.9,1.2-0.8,3.2C319.1,233.4,314.1,233.8,311.2,234.9z"/>
		<path class="st32" d="M320.8,231.4c1.7-2,0.8-3.2,0.8-3.2c-0.1-0.8-0.1-1.6,0.1-2.5l-4.1,0.7c0,0-6-5.5-5.6-2.6
			c0.4,2.9-1.1,3.4-1.1,3.4l1.2,1.6c0.3,0.4,0.1,0.9-0.2,1.3c-1.8,2.9-6,2-6,2c0.5,0.3,1.4,0.6,2.6,0.8c1.9,0.2,2.7,2.1,2.7,2.1
			C314.1,233.8,319.1,233.4,320.8,231.4z"/>
		<g>
			<path class="st35" d="M303,211.4c0,0-0.8,2.1,0.4,3c1.2,0.9,2.2,1.8,2.2,1.8l-0.1,2.7c0,0.4,0.1,0.8,0.3,1.1l1.4,2.3
				c0.3,0.4,0.4,1,0.4,1.5l0,1.1c0,0.3,0.2,0.6,0.5,0.6l0.4,0.1c0.3,0,0.7-0.2,0.7-0.6l0.2-1.5c0,0,0.8-1.2,2.5,0.3l1.5,0.7
				c0.4,0.2,0.8,0.5,0.9,1c0.4,1.2,1.3,3.5,2,3.9c0.9,0.5,4.5-1.2,5-2.1c0.5-0.8,1.8-6.2,2.6-8.8c0.8-2.6,0.5-9-7.2-10.8
				C309.1,205.9,304.1,209,303,211.4z"/>
			<path class="st36" d="M321.4,227.3c0.5-0.8,1.8-6.2,2.6-8.8c0,0-3,1.9-6.9,2.5c-3.9,0.5-11.5-4-11.5-4l0,2c0,0.4,0.1,0.8,0.3,1.1
				l1.4,2.3c0.3,0.4,0.4,1,0.4,1.5l0,1.1c0,0.3,0.2,0.6,0.5,0.6l0.4,0.1c0.3,0,0.7-0.2,0.7-0.6l0.2-1.5c0,0,0.8-1.2,2.5,0.3l2.2,0.9
				c0,0,1.3,4.1,2.2,4.6C317.3,229.9,320.9,228.1,321.4,227.3z"/>
		</g>
		<path class="st37" d="M321.6,227.6c0,0,3,1.9,1.4,4.5c-1.6,2.6-12.5,7.1-13.1,7.8c0,0-0.4-3.9,1.1-5.2c0,0,8.4-1.5,9.7-3.6
			C322.1,228.9,321.6,227.6,321.6,227.6z"/>
		<path class="st38" d="M321.6,227.6c0,0,0.5,1.4-0.9,3.5c-1,1.6-6,2.8-8.4,3.3l0,0c0,0,0.9,0.5,2.3,3c3.4-1.7,7.5-3.8,8.4-5.3
			C324.5,229.4,321.6,227.6,321.6,227.6z"/>
		<path class="st28" d="M316,254.1c2.6,8.5-4.7,21.6-5.7,25.4c-1.1,3.8-12.1,21.4-12.1,21.4c0.3,0.3,0.6,0.5,0.8,0.7
			c0.3,0.2,0.7,0.2,0.9-0.1c2.5-3.2,9.8-16.9,10-17.4c0.2-0.6,4.9-11.6,6-14C316.8,268,320,258.6,316,254.1z"/>
		<path class="st28" d="M323.4,235.9c0,0-4.9,2.7-7.3,3.9c-2.4,1.2-5,2.8-5,2.8l-0.9-0.9l-1.1,2.4c0,0-3.8,2.2-5.5,4
			c-1.8,1.8-3.1,4.2-3.3,4.8c0,0,4.7-5.9,8.4-7.7l1-0.5l0.6-1.9l0.9,1C311.2,243.7,321.9,237.5,323.4,235.9z"/>
	</g>
	<g>
		<g>
			<path class="st30" d="M245,236.5c0,0,1.8,0.3,2.5,0c0.7-0.3,2.4-0.6,4.4,0.2c2,0.7,1.9,0.6,2.6,0.7c0.8,0.1,2.1,0.2,2.5,0.4
				c0.4,0.3,1.2,0.8,0.5,1.8c-0.7,1.1-3.5,0.1-4,0c-0.5-0.1-0.9,0.7-0.7,1.4c0.2,0.7,4.4,5.3,5.1,5.8c0.7,0.5,3.5,2.3,3.6,3.1
				c0.1,0.7,0,0.9,0,0.9s0.8,0.7,0.5,1.4c-0.3,0.7-1.6-0.4-1.8-0.2c0,0,0.2,0.8-0.1,0.9c-0.3,0.1-2.1-0.6-2.4-0.8c0,0-0.2,0.6-1.3,0
				c-1-0.6-5.1-2.9-5.5-3.3c-0.5-0.4-2-1.9-2.7-2.3c-0.7-0.4-1.8-1.7-2.3-2.2c-0.6-0.5-3-1.8-4-2C241,242,245,236.5,245,236.5z"/>
			<path class="st32" d="M248.2,244.8c-0.9-1.7-4-3-4-3c0.2-1.4,2.2-5.2,2.2-5.2v0c-0.7,0-1.4-0.1-1.4-0.1s-4,5.5-3.1,5.7
				c1,0.2,3.4,1.4,4,2c0.6,0.5,1.7,1.9,2.3,2.2c0.7,0.4,2.2,1.9,2.7,2.3c0.5,0.4,4.5,2.7,5.5,3.3c1,0.6,1.3,0,1.3,0
				c0.2,0.2,2.1,0.9,2.4,0.8c0.3-0.1,0.1-0.9,0.1-0.9s-1.3-0.7-2.6-1.2C256.3,250.2,249.1,246.5,248.2,244.8z"/>
			<path class="st30" d="M242,230.4c0,0,0.4,2.1,0.3,3.7c-0.1,1.7-3.5-0.5-3.4-0.8c0.1-0.3,1.6-2.8,1.6-2.8L242,230.4z"/>
			<path class="st28" d="M227.3,179.9c0,0,1.9-0.1,4.1,3.6c2.2,3.6,6,16.4,8,21.4c0.2,0.4,0.3,0.9,0.4,1.4
				c0.7,3.8,3.7,21.9,3.9,24.1c0,0-2.3,1.6-3.8,1.9l-3.3-1.1l-3.3-32.8l-5.3-17.3L227.3,179.9z"/>
			<path class="st31" d="M216.8,287.7c0,0-0.6,3-0.3,3.6c0.3,0.6,4.3,5,4.7,5.6c0.4,0.6,2.4,4.2,6.2,5.1c3.7,0.9,6.3,0.7,6.8-1.1
				c0.5-1.8-1.7-4.7-2.7-5.6c-1-0.9-5.3-6-6.1-6.8c-0.8-0.7-1.9-0.9-1.9-0.9l-4.9,0.8L216.8,287.7z"/>
			<path class="st31" d="M231.9,278.7c0,0,3.7,1.4,5.7,1.9c2,0.5,6.6,4,6.5,5.7c-0.1,1.7-2.3,3-4.7,2.8c-2.3-0.2-5.1-1.7-5.5-2.1
				c-0.4-0.4-2-1.3-3.9-1.9c-1.9-0.6-5-0.9-5.5-1.9c-0.5-1-0.6-3.1-0.6-3.1L231.9,278.7z"/>
			<path class="st28" d="M223.5,278c0-0.2,0.2-0.5,0.2-0.6c0.2-0.9,0-4.7,0-4.7l-0.8,1.1c0,0,0.6,3.8,1.7,9.6c0.3,1.5,1.1,3,1.2,3.9
				c0.3,2.5-1.2,3-1.2,3c-3,2.3-5.6,0.9-6.5,0.2c-0.9-0.7-1.2-1.9-2.5-6.1c-1.3-4.2-2.4-13.1-2.1-15.2c0.2-1.9,0.9-7.1,0.9-10.6
				c0-3.6-2.8-14.9-2.8-14.9l11.3-2.2l7.7-4l5.9,0.9c0,0,0.7-2.5,1.5,5.3c0.8,7.8-4,21.7-4,21.7c-1.3,6.9-1.6,14.8-2.3,15.9
				c-0.7,1.1-3.5,3.6-6.1,1.6c-0.5-0.4-1-0.7-1.3-1.1L223.5,278z"/>
			<path class="st31" d="M222.8,273.9c0,0,3.7-10.1,5.5-19.9c1.7-9.6,4.7-11,6-12.7c0,0,1.9,0.9,2.9,1c0.1,0,0.2,0,0.3,0
				c0.8,0-4.2,6.2-5,7.8c-0.9,1.6-6,15.2-6.4,17.1c-0.4,1.9-0.7,15.1-0.3,15.8c0.4,0.8-1.4-0.6-1.4-0.6S223.1,279.5,222.8,273.9z"/>
			<path class="st31" d="M232.5,237.8l-2-0.3l-7.7,4l-11.3,2.2c0,0,2.7,11.4,2.8,14.9c0,3.6-0.6,8.8-0.9,10.6
				c-0.3,2.1,0.8,11,2.1,15.2c0.6,1.8,0.9,3.1,1.3,4c0.5,2.4,2.3,2.8,2.3,2.8s-4.4-13.7-4-21.7c0.4-7.9,1.5-14.5,1.3-16
				c0,0,12.9-4,15.3-12.3C232,239.8,232.3,238.7,232.5,237.8z"/>
			<path class="st34" d="M210.2,181.6c0,0-0.9,0.8-1.1,1.6c-0.2,0.8-1.3,3.6-1.3,3.6s-5.4,7.1-6.3,9.3c-1,2.2-1.3,3.8-1.3,3.8
				l14.2,17.5c0,0-5,17.2-3.6,23.5c1.4,6.3,3.2,8.7,5.5,9.4c2.2,0.7,14.2-4.2,15.1-10.5c0.8-6.2,0.5-7,0.5-7s5.6,1.5,5.9,0.1
				c0.3-1.4-0.7-11.7-1-13.1c-0.3-1.5-1.1-17.6-1.1-17.6s-3.4-14.9-3.6-15.7c-0.2-0.7-2.3-6.3-5-6.7c-2.7-0.3-6.1,4-6.1,4
				L210.2,181.6z"/>
			<path class="st37" d="M210.8,181.1c0,0-0.6,0.4-0.7,1c-0.1,0.6-0.6,1.8,0.4,3.1c1,1.3,9.2,8,12.5,13.6c3.4,5.7,7.5,12,7.9,13.3
				c0,0,1.5-9,0.1-13.1c-1.4-4.1-5.7-12.5-6.6-13.1c-0.9-0.6-6.6-1.2-6.6-1.2L210.8,181.1z"/>
			<path class="st38" d="M219.3,190.1c0,0-0.4,0.7-0.6,1.3c0,0-2.4-1.2-3.4-1.7l3.7,2.5c0,0,0.2-1.3,0.4-1.5c0,0,2.1,1.6,2.4,2.3
				c0.3,0.7,4.2,10.4,4.2,10.4l2,3.3l0.5-0.8l-3.3-9c0,0-1.9-2.8-1.9-2.9c0-0.1-1.3-3.1-1.3-3.1L219.3,190.1z"/>
			<path class="st31" d="M219.3,190.1c0,0,1.2-2.3,3.6-2.2c0,0,0.7,2.8,0.9,3.9c0,0-1.5,0.7-2.1,0.1
				C221,191.5,219.3,190.1,219.3,190.1z"/>
			<path class="st31" d="M223.4,191.3c0,0,6,7.4,8.1,16.4l-0.4,4.6l-3.2-5.7c0,0-5.2-13-6.4-15.4
				C220.3,188.9,223.4,191.3,223.4,191.3z"/>
			<path class="st28" d="M213.4,221.1c-0.4,1.6-0.9,3.6-1.3,5.7c0,0,8.9,11.7,17.7,16.4c0.8-1.1,1.4-2.3,1.6-3.5
				c0.4-3.3,0.5-5,0.6-6l-10.1-7.7L213.4,221.1z"/>
			<path class="st28" d="M212.8,204c0,0,2.6,3.5,3.3,3.8c0.7,0.3,6.3,10.1,7.4,12c1.1,1.9,4.1,4.4,4.1,4.4l-2.8,0.3l-11.1-14.9
				L212.8,204z"/>
			<path class="st33" d="M214.3,207.1c-1.1-2.8-2.9-5.3-5.1-7.2c-2.6-2.2-5.9-4.2-7.7-2.4c-3.1,3.3-1.8,9.6,2.6,15.4
				c4.4,5.9,11.4,14.3,13,15.7c1.6,1.4,15,11.5,22.8,15.3c0.6,0.3,1.2,0.1,1.6-0.5c1.1-1.8,3.3-5.4,4.1-6.9c0.2-0.3,0.1-0.7-0.2-0.9
				c-2.8-1.8-16.9-10.9-21.1-13.7c-0.6-0.4-1.2-1-1.5-1.7c-1.2-2.4-4.4-8.2-7.1-11.2C215,208.5,214.6,207.9,214.3,207.1
				C214.4,207.2,214.3,207.1,214.3,207.1z"/>
			<path class="st28" d="M224.7,183l4.9,5l-1.3,0.4l1.6,0.9c0,0,3.9,9.3,3.1,19.9c0,0,2-8.3-2.3-20.1l-1.3-0.7l0.9-0.3L224.7,183z"
				/>
			<path class="st30" d="M210.7,180.2c0.1,0.2,0.1,0.4,0.1,0.6c0,0.4-0.1,1.2,0,1.5c0.1,0.5,3.2,5.7,9.5,5.7c0,0,0.8-1.1,0.9-1.4
				c0,0,2.6-0.1,3.6-1.1c1.1-0.9,0.4-2.6,0.4-2.6l0.2-2c0-0.2,0.1-0.5,0.3-0.6c0.2-0.2,0.5-0.5,0.6-0.8c0.1-0.2-0.1-0.6-0.2-0.9
				c-0.1-0.2-0.1-0.4-0.1-0.6c0.1-0.5,0.1-1.5-0.2-2.9c-0.1-0.4-0.1-0.8,0-1.2c0.2-0.6,0.4-1.5,0.4-1.9c0-0.5-0.8-1.9-0.9-2.4
				c0-0.5-0.8-2.4-0.8-2.4s-4.7-8.7-12.3-4.9c-7.6,3.8-3.7,12-2.7,14.3c0,0,0.9,1.9,1.1,2.3C210.6,179.6,210.5,179.8,210.7,180.2z"
				/>
			<path class="st35" d="M225.1,168.6c0.1,0.6-0.2,1.2-0.6,1.6c-0.9,0.8-2.7,2.1-5.2,2.5c-1.7,0.2-2.6,0.3-3.1,0.3
				c-0.3,0-0.6,0.3-0.6,0.6c0,0.6-0.1,1.6-0.2,2.2c0,0.3-0.1,0.5-0.2,0.7l-0.5,1.1c-0.1,0.3-0.4,0.5-0.7,0.4l-0.1,0
				c-0.3,0-0.6-0.3-0.7-0.6l0,0c-0.1-0.9-0.6-1.7-1.4-2.1c-0.4-0.2-0.9-0.3-1.3-0.1c-1.3,0.5-0.8,1.8-0.8,1.8s-1.6-1.9-2.3-4.4
				c-0.7-2.5-0.5-7.1,2.8-9.5c3.3-2.4,7.6-3.3,11.2-0.8C224.2,164.6,224.9,167.2,225.1,168.6z"/>
			<path class="st32" d="M212.6,179.3c-0.2-0.2,0,1.5-1.7,1.6c0,0.4-0.1,1.2,0,1.5c0.1,0.5,3.2,5.7,9.5,5.7c0,0,0.8-1.1,0.9-1.4
				c0,0-5.8-2.8-6.8-4.1C213.3,181.4,212.8,179.5,212.6,179.3z"/>
			<path class="st38" d="M222.9,188c0,0,1.7,0.2,2.5,0.6c0,0,0.2-0.9-0.2-1.9c0,0,0.5,0.4,0.5,2.5c0,0-2.5-0.8-2.7-0.9L222.9,188z"
				/>
			<path class="st28" d="M242.1,242.1c0,0-14.6-8.4-19.6-11.8c-4.9-3.3-18.8-17.5-21.6-22.9c0.7,1.8,1.8,3.7,3.2,5.5
				c4.4,5.9,11.4,14.3,13,15.7c1.6,1.4,15,11.5,22.8,15.3c0.6,0.3,1.2,0.1,1.6-0.5c0.2-0.3,0.5-0.8,0.7-1.2
				C242.1,242.2,242.1,242.1,242.1,242.1z"/>
			<path class="st28" d="M208.4,187.2l6.7,9.5l1.7-0.6l0.1,1.8c0,0,8,6,14,18.3c0,0-7.9-12.8-14.2-17l-0.6-1.8l-1.3,0.3L208.4,187.2
				z"/>
			<path class="st36" d="M207.8,174c-0.1,0-0.1,0-0.2-0.1c0.8,1.9,1.9,3.3,1.9,3.3s-0.5-1.3,0.8-1.8c0.5-0.2,0.9-0.1,1.3,0.1
				c0.8,0.4,1.3,1.2,1.4,2.1l0,0c0,0.3,0.3,0.6,0.7,0.6l0.1,0c0.3,0,0.6-0.1,0.7-0.4l0.5-1.1c0.1-0.2,0.2-0.5,0.2-0.7
				c0.1-0.6,0.2-1.6,0.2-2.2C215.5,173.6,211.1,175.1,207.8,174z"/>
		</g>
	</g>
	<g>
		<polygon class="st39" points="287.8,161.7 284.5,159.8 284.5,166.1 287.8,168 		"/>
		<polygon class="st40" points="293.7,176.6 290.4,174.7 290.4,169.5 293.7,171.4 		"/>
		<polygon class="st41" points="299.5,170.1 296.2,168.2 296.2,172.9 299.5,174.8 		"/>
		<polygon class="st20" points="305.4,168.8 302.1,166.9 302.1,176.3 305.4,178.2 		"/>
		<polygon class="st20" points="311.2,168.1 308,166.2 308,179.6 311.2,181.5 		"/>
		<polygon class="st41" points="317.1,175.6 313.8,173.7 313.8,183 317.1,184.9 		"/>
		<polygon class="st40" points="323,176.6 319.7,174.7 319.7,186.4 323,188.3 		"/>
		<polygon class="st39" points="328.8,174.9 325.5,173 325.5,189.8 328.8,191.7 		"/>
	</g>
	<g>
		<path class="st39" d="M385.9,272.9L385.9,272.9c0.8,0.5,1.4,0.2,1.4-0.6l0-33.6c0-0.8-0.6-1.8-1.4-2.2l0,0
			c-0.8-0.5-1.4-0.2-1.4,0.6l0,33.6C384.5,271.5,385.1,272.5,385.9,272.9z"/>
		<path class="st40" d="M380.8,270L380.8,270c0.8,0.5,1.4,0.2,1.4-0.6l0-22c0-0.8-0.6-1.8-1.4-2.2l0,0c-0.8-0.5-1.4-0.2-1.4,0.6
			l0,22C379.4,268.5,380,269.5,380.8,270z"/>
		<path class="st41" d="M375.7,267.1L375.7,267.1c0.8,0.5,1.4,0.2,1.4-0.6l0-29.4c0-0.8-0.6-1.8-1.4-2.2l0,0
			c-0.8-0.5-1.4-0.2-1.4,0.6l0,29.4C374.3,265.6,374.9,266.6,375.7,267.1z"/>
		<path class="st20" d="M370.7,264.1L370.7,264.1c0.8,0.5,1.4,0.2,1.4-0.6l0-18.3c0-0.8-0.6-1.8-1.4-2.2l0,0
			c-0.8-0.5-1.4-0.2-1.4,0.6l0,18.3C369.2,262.7,369.9,263.7,370.7,264.1z"/>
		<path class="st20" d="M365.6,261.2L365.6,261.2c0.8,0.5,1.4,0.2,1.4-0.6l0-20c0-0.8-0.6-1.8-1.4-2.2l0,0c-0.8-0.5-1.4-0.2-1.4,0.6
			l0,20C364.2,259.7,364.8,260.7,365.6,261.2z"/>
		<path class="st41" d="M360.5,258.3L360.5,258.3c0.8,0.5,1.4,0.2,1.4-0.6l0-13.3c0-0.8-0.6-1.8-1.4-2.2l0,0
			c-0.8-0.5-1.4-0.2-1.4,0.6l0,13.3C359.1,256.8,359.7,257.8,360.5,258.3z"/>
		<path class="st40" d="M355.4,255.3L355.4,255.3c0.8,0.5,1.4,0.2,1.4-0.6l0-16.2c0-0.8-0.6-1.8-1.4-2.2v0c-0.8-0.5-1.4-0.2-1.4,0.6
			l0,16.2C354,253.9,354.6,254.9,355.4,255.3z"/>
		<path class="st39" d="M350.4,252.4L350.4,252.4c0.8,0.5,1.4,0.2,1.4-0.6l0-5.9c0-0.8-0.6-1.8-1.4-2.2l0,0
			c-0.8-0.5-1.4-0.2-1.4,0.6l0,5.9C348.9,250.9,349.6,251.9,350.4,252.4z"/>
	</g>
</g>
</svg>
